<svg width="31" height="31" viewBox="0 0 31 31" fill="none" xmlns="http://www.w3.org/2000/svg">
<path d="M9.65151 0.499176H1.37851C1.14539 0.499176 0.921809 0.591785 0.756965 0.756629C0.59212 0.921474 0.499512 1.14505 0.499512 1.37818L0.499512 9.65118C0.499512 9.8843 0.59212 10.1079 0.756965 10.2727C0.921809 10.4376 1.14539 10.5302 1.37851 10.5302C1.61164 10.5302 1.83521 10.4376 2.00006 10.2727C2.1649 10.1079 2.25751 9.8843 2.25751 9.65118V2.25718H9.65151C9.88464 2.25718 10.1082 2.16457 10.2731 1.99972C10.4379 1.83488 10.5305 1.6113 10.5305 1.37818C10.5305 1.14505 10.4379 0.921474 10.2731 0.756629C10.1082 0.591785 9.88464 0.499176 9.65151 0.499176V0.499176Z" fill="white"/>
<path d="M29.6205 0.499177H21.3475C21.1144 0.499177 20.8908 0.591785 20.726 0.75663C20.5611 0.921474 20.4685 1.14505 20.4685 1.37818C20.4685 1.6113 20.5611 1.83488 20.726 1.99972C20.8908 2.16457 21.1144 2.25718 21.3475 2.25718H28.7425V9.65118C28.7425 9.8843 28.8351 10.1079 29 10.2727C29.1648 10.4376 29.3884 10.5302 29.6215 10.5302C29.8546 10.5302 30.0782 10.4376 30.243 10.2727C30.4079 10.1079 30.5005 9.8843 30.5005 9.65118V1.37818C30.5005 1.26266 30.4777 1.14828 30.4335 1.04157C30.3893 0.934856 30.3244 0.837912 30.2427 0.756276C30.161 0.67464 30.0639 0.609914 29.9572 0.565799C29.8504 0.521684 29.736 0.499045 29.6205 0.499177Z" fill="white"/>
<path d="M9.65151 28.7412H2.25751V21.3462C2.25751 21.113 2.1649 20.8895 2.00006 20.7246C1.83521 20.5598 1.61164 20.4672 1.37851 20.4672C1.14539 20.4672 0.921809 20.5598 0.756965 20.7246C0.59212 20.8895 0.499512 21.113 0.499512 21.3462L0.499512 29.6192C0.499512 29.8523 0.59212 30.0759 0.756965 30.2407C0.921809 30.4056 1.14539 30.4982 1.37851 30.4982H9.65151C9.88464 30.4982 10.1082 30.4056 10.2731 30.2407C10.4379 30.0759 10.5305 29.8523 10.5305 29.6192C10.5305 29.386 10.4379 29.1625 10.2731 28.9976C10.1082 28.8328 9.88464 28.7402 9.65151 28.7402V28.7412Z" fill="white"/>
<path d="M29.6205 20.4682C29.3874 20.4682 29.1638 20.5608 28.999 20.7256C28.8341 20.8905 28.7415 21.114 28.7415 21.3472V28.7422H21.3465C21.1134 28.7422 20.8898 28.8348 20.725 28.9996C20.5601 29.1645 20.4675 29.3881 20.4675 29.6212C20.4675 29.8543 20.5601 30.0779 20.725 30.2427C20.8898 30.4076 21.1134 30.5002 21.3465 30.5002H29.6195C29.8527 30.5002 30.0762 30.4076 30.2411 30.2427C30.4059 30.0779 30.4985 29.8543 30.4985 29.6212V21.3482C30.4987 21.2327 30.4761 21.1184 30.432 21.0117C30.388 20.905 30.3233 20.808 30.2418 20.7263C30.1603 20.6446 30.0634 20.5798 29.9568 20.5355C29.8503 20.4912 29.736 20.4683 29.6205 20.4682Z" fill="white"/>
<path d="M29.9995 15.2492H0.999512C0.866903 15.2492 0.739727 15.1965 0.645958 15.1027C0.55219 15.009 0.499512 14.8818 0.499512 14.7492C0.499512 14.6166 0.55219 14.4894 0.645958 14.3956C0.739727 14.3019 0.866903 14.2492 0.999512 14.2492H29.9995C30.1321 14.2492 30.2593 14.3019 30.3531 14.3956C30.4468 14.4894 30.4995 14.6166 30.4995 14.7492C30.4995 14.8818 30.4468 15.009 30.3531 15.1027C30.2593 15.1965 30.1321 15.2492 29.9995 15.2492Z" fill="white" stroke="white" stroke-width="0.8"/>
</svg>
