<svg width="36" height="31" viewBox="0 0 36 31" fill="none" xmlns="http://www.w3.org/2000/svg">
<path d="M33.9651 14.0507H33.1331V9.05069C33.1331 8.06939 32.7433 7.12828 32.0494 6.43439C31.3555 5.74051 30.4144 5.35069 29.4331 5.35069H28.6651L28.6721 3.49369C28.6708 2.83238 28.4075 2.19853 27.9399 1.73092C27.4722 1.2633 26.8384 1.00001 26.1771 0.998688H3.99709C3.20016 0.999133 2.43541 1.31311 1.86807 1.87277C1.30074 2.43243 0.976382 3.19284 0.965088 3.98969L0.965088 28.5057C0.966409 29.167 1.2297 29.8008 1.69732 30.2685C2.16493 30.7361 2.79878 30.9994 3.46009 31.0007H29.4381C29.924 31.0007 30.4051 30.905 30.854 30.719C31.3029 30.5331 31.7108 30.2606 32.0544 29.917C32.398 29.5734 32.6705 29.1655 32.8564 28.7166C33.0424 28.2677 33.1381 27.7866 33.1381 27.3007V22.3007H33.9651C34.4821 22.3002 34.9778 22.0945 35.3434 21.729C35.7089 21.3634 35.9146 20.8677 35.9151 20.3507V15.9967C35.9106 15.4813 35.7036 14.9883 35.3388 14.6242C34.9739 14.2601 34.4805 14.0541 33.9651 14.0507ZM3.99709 2.72069H26.1761C26.3802 2.72068 26.576 2.80127 26.7209 2.94491C26.8659 3.08855 26.9482 3.28362 26.9501 3.48769L26.9431 5.35069H3.99709C3.6482 5.35069 3.31359 5.21209 3.06689 4.96539C2.82018 4.71868 2.68159 4.38408 2.68159 4.03519C2.68159 3.68629 2.82018 3.35169 3.06689 3.10499C3.31359 2.85828 3.6482 2.71969 3.99709 2.71969V2.72069ZM31.4091 27.2947C31.408 27.819 31.1993 28.3215 30.8286 28.6922C30.4579 29.0629 29.9554 29.2716 29.4311 29.2727H3.45209C3.24697 29.2722 3.05041 29.1904 2.90537 29.0454C2.76033 28.9004 2.67862 28.7038 2.67809 28.4987V6.77169C3.0894 6.97017 3.54039 7.07274 3.99709 7.07169H29.4311C29.9555 7.07274 30.4582 7.28162 30.8289 7.65255C31.1997 8.02349 31.4083 8.52624 31.4091 9.05069V14.0507H25.5381C25.0211 14.0512 24.5254 14.2568 24.1598 14.6224C23.7942 14.988 23.5886 15.4837 23.5881 16.0007V20.3507C23.5886 20.8677 23.7942 21.3634 24.1598 21.729C24.5254 22.0945 25.0211 22.3002 25.5381 22.3007H31.4091V27.3007V27.2947ZM34.1911 20.3507C34.1915 20.3809 34.1858 20.4108 34.1745 20.4388C34.1631 20.4668 34.1463 20.4922 34.1249 20.5135C34.1036 20.5349 34.0782 20.5517 34.0502 20.5631C34.0222 20.5744 33.9923 20.5801 33.9621 20.5797H25.5461C25.5159 20.5801 25.4859 20.5744 25.458 20.5631C25.43 20.5517 25.4046 20.5349 25.3833 20.5135C25.3619 20.4922 25.3451 20.4668 25.3337 20.4388C25.3223 20.4108 25.3167 20.3809 25.3171 20.3507V15.9967C25.3176 15.9361 25.3419 15.8782 25.3847 15.8353C25.4276 15.7925 25.4855 15.7682 25.5461 15.7677H33.9651C34.0257 15.7682 34.0836 15.7925 34.1264 15.8353C34.1693 15.8782 34.1936 15.9361 34.1941 15.9967V20.3507H34.1911Z" fill="white"/>
</svg>
