<svg width="21" height="20" viewBox="0 0 21 20" fill="none" xmlns="http://www.w3.org/2000/svg">
<g opacity="0.4">
<path d="M10.5 20C8.52219 20 6.58879 19.4135 4.9443 18.3147C3.29981 17.2159 2.01809 15.6541 1.26121 13.8268C0.504333 11.9996 0.3063 9.98891 0.692152 8.0491C1.078 6.10929 2.03041 4.32746 3.42894 2.92894C4.82746 1.53041 6.60929 0.578004 8.5491 0.192152C10.4889 -0.1937 12.4996 0.00433284 14.3268 0.761209C16.1541 1.51809 17.7159 2.79981 18.8147 4.4443C19.9135 6.08879 20.5 8.02219 20.5 10C20.4971 12.6513 19.4426 15.1931 17.5679 17.0679C15.6931 18.9426 13.1513 19.9971 10.5 20ZM10.5 1.25C8.76942 1.25 7.07769 1.76318 5.63876 2.72464C4.19983 3.68611 3.07833 5.05267 2.41606 6.65152C1.75379 8.25038 1.58051 10.0097 1.91813 11.707C2.25575 13.4044 3.08911 14.9635 4.31282 16.1872C5.53653 17.4109 7.09563 18.2443 8.79296 18.5819C10.4903 18.9195 12.2496 18.7462 13.8485 18.0839C15.4473 17.4217 16.8139 16.3002 17.7754 14.8612C18.7368 13.4223 19.25 11.7306 19.25 10C19.2474 7.68017 18.3246 5.45611 16.6843 3.81574C15.0439 2.17537 12.8198 1.25265 10.5 1.25Z" fill="#888888"/>
<path d="M14.875 15.416C14.7929 15.4163 14.7115 15.4003 14.6356 15.3688C14.5598 15.3374 14.4909 15.2913 14.433 15.233L10.058 10.858C9.99997 10.8 9.95393 10.7311 9.92253 10.6552C9.89113 10.5794 9.87498 10.4981 9.875 10.416V4.58301C9.875 4.41725 9.94085 4.25828 10.0581 4.14107C10.1753 4.02386 10.3342 3.95801 10.5 3.95801C10.6658 3.95801 10.8247 4.02386 10.9419 4.14107C11.0592 4.25828 11.125 4.41725 11.125 4.58301V10.157L15.317 14.349C15.4044 14.4364 15.464 14.5478 15.4881 14.669C15.5122 14.7903 15.4999 14.916 15.4525 15.0302C15.4052 15.1444 15.3251 15.242 15.2223 15.3107C15.1195 15.3794 14.9986 15.416 14.875 15.416Z" fill="#888888"/>
</g>
</svg>
