<svg width="16" height="10" viewBox="0 0 16 10" fill="none" xmlns="http://www.w3.org/2000/svg">
<path d="M15.8988 4.69506C15.7561 4.50321 12.35 0 8.00067 0C3.65134 0 0.244397 4.50321 0.101693 4.69418C0.0356143 4.78282 0 4.88977 0 4.99956C0 5.10935 0.0356143 5.2163 0.101693 5.30494C0.244397 5.49679 3.65044 10 7.99978 10C12.3491 10 15.7552 5.49679 15.8979 5.30582C15.9641 5.21727 15.9998 5.11038 16 5.00059C16.0002 4.89079 15.9647 4.78379 15.8988 4.69506ZM8.00067 8.96595C4.79656 8.96595 2.02147 5.97377 1.20024 5.00044C2.02057 4.02271 4.79028 1.03582 8.00067 1.03582C11.2111 1.03582 13.9799 4.02798 14.8011 5.00132C13.9808 5.97817 11.2111 8.96507 8.00067 8.96507V8.96595Z" fill="#888888"/>
<path d="M7.99983 1.89655C7.37392 1.89655 6.76208 2.07854 6.24166 2.4195C5.72124 2.76047 5.31562 3.2451 5.0761 3.81211C4.83658 4.37911 4.77391 5.00304 4.89601 5.60497C5.01812 6.2069 5.31953 6.75982 5.76211 7.19379C6.20469 7.62776 6.76856 7.92329 7.38243 8.04302C7.99631 8.16275 8.63261 8.10131 9.21087 7.86645C9.78913 7.63159 10.2834 7.23386 10.6311 6.72356C10.9788 6.21327 11.1644 5.61333 11.1644 4.9996C11.1635 4.17691 10.8298 3.38817 10.2365 2.80643C9.64322 2.2247 8.83884 1.89748 7.99983 1.89655ZM7.99983 7.06859C7.5825 7.06859 7.17454 6.94724 6.82754 6.7199C6.48055 6.49255 6.2101 6.16943 6.0504 5.79137C5.89069 5.41331 5.8489 4.9973 5.93032 4.59595C6.01174 4.19461 6.2127 3.82595 6.50779 3.53659C6.80289 3.24724 7.17886 3.05019 7.58817 2.97035C7.99748 2.89052 8.42175 2.9315 8.80731 3.0881C9.19287 3.24469 9.52241 3.50988 9.75427 3.85012C9.98612 4.19037 10.1099 4.59039 10.1099 4.9996C10.1089 5.54788 9.88625 6.07341 9.4907 6.46094C9.09514 6.84847 8.55899 7.06637 7.99983 7.06684V7.06859Z" fill="#888888"/>
</svg>
