<svg width="18" height="20" viewBox="0 0 18 20" fill="none" xmlns="http://www.w3.org/2000/svg">
<path d="M17.7539 7.56203L9.48481 0.184999C9.35139 0.0658498 9.17927 6.10352e-05 9.00099 6.10352e-05C8.82271 6.10352e-05 8.6506 0.0658498 8.51717 0.184999L0.246126 7.56203C0.168692 7.63105 0.106704 7.71587 0.0642712 7.81086C0.0218384 7.90586 -6.94097e-05 8.00885 1.65199e-07 8.11303V19.2651C1.65199e-07 19.46 0.0768527 19.647 0.213651 19.7848C0.350449 19.9226 0.535985 20.0001 0.729447 20.0001H17.2706C17.464 20.0001 17.6496 19.9226 17.7864 19.7848C17.9231 19.647 18 19.46 18 19.2651V8.11303C18.0001 8.00885 17.9782 7.90586 17.9357 7.81086C17.8933 7.71587 17.8313 7.63105 17.7539 7.56203ZM16.5411 18.5301H1.45592V8.44403L8.99851 1.718L16.5411 8.44403V18.5301Z" fill="white"/>
<path d="M11.4568 12.035H6.54317C6.44738 12.035 6.35253 12.054 6.26403 12.091C6.17553 12.1279 6.09512 12.1821 6.02738 12.2503C5.95965 12.3186 5.90591 12.3996 5.86925 12.4887C5.83259 12.5779 5.81372 12.6735 5.81372 12.77V19.27H7.27362V13.51H10.7273V19.27H12.1872V12.77C12.1872 12.6734 12.1683 12.5778 12.1316 12.4885C12.0949 12.3993 12.0411 12.3182 11.9732 12.2499C11.9054 12.1817 11.8248 12.1276 11.7362 12.0907C11.6476 12.0538 11.5527 12.0349 11.4568 12.035Z" fill="white"/>
</svg>
