<svg width="121" height="120" viewBox="0 0 121 120" fill="none" xmlns="http://www.w3.org/2000/svg">
<path d="M95.1281 37.7571H86.7353V29.5945H75.4466V37.7571H67.0527V48.7342H75.4466V56.8977H86.7353V48.7342H95.1281V37.7571Z" fill="white"/>
<path d="M94.0907 6.00671C93.5418 5.78514 92.9704 5.61575 92.414 5.44637C91.6138 5.20098 90.8079 4.98856 90.0001 4.79262C89.5227 3.31972 88.5477 2.04684 87.2332 1.18034C85.9188 0.313848 84.3419 -0.0954587 82.7583 0.0187834C81.1748 0.133026 79.6773 0.764109 78.5087 1.80974C77.34 2.85536 76.5688 4.25423 76.32 5.77953C76.0712 7.30483 76.3594 8.86714 77.1379 10.2132C77.9165 11.5592 79.1396 12.6101 80.6091 13.1953C82.0786 13.7806 83.7083 13.866 85.2339 13.4377C86.7596 13.0094 88.0917 12.0925 89.0145 10.8356C89.5228 10.9674 90.0296 11.1103 90.5349 11.2641C90.902 11.3758 91.2673 11.4939 91.6457 11.6203L91.8717 11.7118C98.1683 13.9321 103.648 17.9157 107.62 23.1603C111.593 28.405 113.879 34.676 114.193 41.1828C114.506 47.6896 112.831 54.1409 109.38 59.7235C105.929 65.3062 100.856 69.7702 94.8003 72.5529C88.7445 75.3356 81.9772 76.3124 75.3514 75.3602C68.7257 74.4079 62.5381 71.5693 57.5687 67.2021C52.5993 62.8349 49.0705 57.1346 47.4271 50.8198C45.7838 44.505 46.0994 37.8583 48.3343 31.7177C48.563 31.0878 48.7664 30.5796 48.9735 30.1172L49.0319 29.9817C49.126 29.7391 49.2352 29.502 49.3378 29.2758C49.5261 28.8675 49.7219 28.4655 49.9234 28.0663C51.4738 28.3867 53.09 28.19 54.5114 27.5078C55.9328 26.8256 57.0765 25.6978 57.7582 24.306C58.4399 22.9143 58.6197 21.3399 58.2688 19.8366C57.9179 18.3333 57.0566 16.9888 55.8238 16.0198C54.5911 15.0508 53.0587 14.5138 51.4738 14.4954C49.8889 14.4771 48.3438 14.9784 47.0876 15.9185C45.8315 16.8587 44.9375 18.1829 44.5498 19.6776C44.1621 21.1723 44.3034 22.7505 44.9508 24.1576C44.4725 25.0229 44.0197 25.9037 43.6064 26.8128C43.468 27.1168 43.324 27.4281 43.2025 27.7458C42.9436 28.3263 42.696 28.9462 42.4249 29.6897C39.7776 36.9619 39.4022 44.8334 41.3459 52.3128C43.2897 59.7921 47.4657 66.5448 53.348 71.7203C59.2302 76.8959 66.5557 80.2628 74.4017 81.3969C82.2477 82.5311 90.2633 81.3819 97.439 78.094C104.615 74.806 110.63 69.5265 114.726 62.9203C118.822 56.3141 120.817 48.6767 120.459 40.97C120.101 33.2633 117.406 25.832 112.714 19.6121C108.021 13.3922 101.541 8.66179 94.0897 6.01679L94.0907 6.00671Z" fill="white"/>
<path d="M99.387 72.624L93.2169 73.6907C93.9644 78.977 93.7487 84.3501 92.5796 89.5636C90.0659 100.447 83.5013 107.929 73.0665 111.801C62.5375 115.707 51.5077 114.241 40.2849 107.443C36.1319 104.895 32.2936 101.892 28.8456 98.4916C31.443 95.5372 32.8181 91.749 32.7035 87.8635C32.589 83.9779 30.993 80.2726 28.2257 77.4678C25.4585 74.663 21.7177 72.9592 17.7307 72.6876C13.7436 72.4159 9.79518 73.5958 6.65284 75.9979C3.5105 78.4 1.39882 81.8527 0.728298 85.6847C0.0577799 89.5168 0.876323 93.4544 3.02482 96.7322C5.17331 100.01 8.49824 102.394 12.3533 103.42C16.2083 104.446 20.3179 104.042 23.8833 102.285C27.7588 106.182 32.0969 109.616 36.8063 112.517C44.9591 117.489 53.3002 120 61.4606 120C66.1923 119.997 70.8832 119.148 75.2996 117.496C105.219 106.394 99.4492 72.9582 99.387 72.624ZM7.5109 91.1192C6.97476 89.3424 6.99238 87.451 7.56155 85.684C8.13072 83.9171 9.22585 82.3539 10.7085 81.1923C12.1911 80.0306 13.9946 79.3227 15.891 79.1579C17.7873 78.9932 19.6913 79.379 21.3622 80.2667C23.033 81.1544 24.3957 82.504 25.2779 84.1449C26.1601 85.7858 26.5221 87.6442 26.3183 89.4853C26.1144 91.3263 25.3538 93.0671 24.1326 94.4877C22.9114 95.9083 21.2845 96.9448 19.4576 97.4661C17.0083 98.1628 14.3748 97.8861 12.135 96.6967C9.89515 95.5074 8.23183 93.5025 7.50995 91.1219L7.5109 91.1192Z" fill="white"/>
</svg>
