<svg width="20" height="20" viewBox="0 0 20 20" fill="none" xmlns="http://www.w3.org/2000/svg">
<g clip-path="url(#clip0_241_1896)">
<path d="M18.7958 11.385L17.2125 5.68829C16.7484 4.0194 15.7398 2.55353 14.3469 1.52369C12.9541 0.493838 11.257 -0.0408839 9.52537 0.00451617C7.79375 0.0499163 6.12699 0.672833 4.79004 1.77425C3.45308 2.87567 2.52266 4.39238 2.14665 6.08329L0.920818 11.5958C0.785414 12.2049 0.788545 12.8367 0.929979 13.4444C1.07141 14.0521 1.34754 14.6203 1.73797 15.1071C2.1284 15.5938 2.62317 15.9867 3.18574 16.2566C3.74832 16.5265 4.36434 16.6666 4.98832 16.6666H5.91665C6.10791 17.6085 6.61893 18.4554 7.3631 19.0636C8.10728 19.6719 9.03886 20.0041 9.99999 20.0041C10.9611 20.0041 11.8927 19.6719 12.6369 19.0636C13.381 18.4554 13.8921 17.6085 14.0833 16.6666H14.7817C15.424 16.6667 16.0576 16.5182 16.6331 16.2328C17.2086 15.9474 17.7103 15.5329 18.099 15.0215C18.4877 14.5101 18.753 13.9158 18.874 13.285C18.995 12.6542 18.9685 12.0039 18.7967 11.385H18.7958ZM9.99999 18.3333C9.48477 18.3312 8.98279 18.1699 8.56274 17.8716C8.14268 17.5732 7.82505 17.1524 7.65332 16.6666H12.3467C12.1749 17.1524 11.8573 17.5732 11.4372 17.8716C11.0172 18.1699 10.5152 18.3312 9.99999 18.3333ZM16.7717 14.0125C16.5394 14.3205 16.2386 14.5702 15.893 14.7416C15.5474 14.913 15.1666 15.0015 14.7808 15H4.98832C4.61397 14.9999 4.24442 14.9158 3.90694 14.7538C3.56945 14.5918 3.27266 14.3561 3.03845 14.064C2.80425 13.772 2.63862 13.4311 2.55379 13.0665C2.46895 12.7019 2.46709 12.3229 2.54832 11.9575L3.77332 6.44413C4.06861 5.11597 4.79941 3.92463 5.84953 3.0595C6.89966 2.19437 8.20884 1.7051 9.56896 1.66947C10.9291 1.63384 12.2621 2.05389 13.3561 2.86285C14.4501 3.67181 15.2422 4.82325 15.6067 6.13413L17.19 11.8308C17.2946 12.2019 17.3113 12.5924 17.2387 12.9711C17.166 13.3498 17.0061 13.7063 16.7717 14.0125Z" fill="#EF4444"/>
</g>
<defs>
<clipPath id="clip0_241_1896">
<rect width="20" height="20" fill="white"/>
</clipPath>
</defs>
</svg>
