<svg width="32" height="30" viewBox="0 0 32 30" fill="none" xmlns="http://www.w3.org/2000/svg">
<path d="M31.8161 11.331C31.6571 10.9405 31.39 10.6035 31.0462 10.3594C30.7024 10.1153 30.2962 9.97435 29.8751 9.953L21.7601 8.774L18.1301 1.42C17.9797 1.02621 17.7201 0.683475 17.3818 0.43197C17.0435 0.180465 16.6405 0.0306189 16.2201 0C15.7997 0.0307376 15.3968 0.18063 15.0585 0.432119C14.7202 0.683608 14.4606 1.02628 14.3101 1.42L10.6811 8.774L2.56511 9.953C2.14403 9.97435 1.73777 10.1153 1.39398 10.3594C1.05019 10.6035 0.783126 10.9405 0.62411 11.331C0.523345 11.7402 0.541319 12.1697 0.675925 12.5691C0.81053 12.9685 1.05619 13.3212 1.38411 13.586L7.25711 19.31L5.87111 27.394C5.78495 27.7353 5.77708 28.0917 5.84808 28.4365C5.91908 28.7812 6.06711 29.1055 6.28111 29.385C6.45004 29.5823 6.66061 29.7397 6.89768 29.8459C7.13475 29.9521 7.39241 30.0044 7.65211 29.999C8.1112 29.987 8.56046 29.8635 8.96111 29.639L16.2201 25.823L23.4791 29.639C23.8798 29.8633 24.329 29.9869 24.7881 29.999C25.0479 30.0042 25.3056 29.9518 25.5427 29.8455C25.7797 29.7391 25.9903 29.5815 26.1591 29.384C26.3729 29.1044 26.5208 28.7801 26.5916 28.4353C26.6624 28.0906 26.6544 27.7342 26.5681 27.393L25.1821 19.31L31.0551 13.586C31.3832 13.3214 31.6291 12.9687 31.7638 12.5693C31.8986 12.1699 31.9168 11.7403 31.8161 11.331ZM29.7741 12.271L23.5551 18.333C23.4485 18.437 23.3688 18.5653 23.3228 18.7069C23.2768 18.8486 23.266 18.9992 23.2911 19.146L24.7591 27.706C24.7926 27.8559 24.795 28.0111 24.7661 28.162C24.6136 28.1425 24.4666 28.0922 24.3341 28.014L16.6471 23.973C16.5153 23.9037 16.3686 23.8675 16.2196 23.8675C16.0707 23.8675 15.924 23.9037 15.7921 23.973L8.10611 28.013C7.97362 28.0911 7.82665 28.1414 7.67411 28.161C7.64537 28.0101 7.64775 27.8549 7.68111 27.705L9.14911 19.146C9.17426 18.9992 9.16337 18.8486 9.11739 18.7069C9.0714 18.5653 8.99169 18.437 8.88511 18.333L2.66711 12.271C2.55194 12.1692 2.45871 12.045 2.39311 11.906C2.52783 11.8322 2.67618 11.7866 2.82911 11.772L11.4231 10.523C11.5703 10.5019 11.7102 10.4453 11.8307 10.3582C11.9512 10.2711 12.0488 10.1561 12.1151 10.023L15.9581 2.236C16.0191 2.09482 16.1083 1.96756 16.2201 1.862C16.3319 1.96757 16.4211 2.09483 16.4821 2.236L20.3251 10.023C20.3915 10.1561 20.4891 10.271 20.6096 10.3581C20.7301 10.4452 20.8699 10.5018 21.0171 10.523L29.6111 11.772C29.764 11.7865 29.9124 11.8321 30.0471 11.906C29.9818 12.0449 29.8889 12.1691 29.7741 12.271Z" fill="white"/>
</svg>
