<svg width="36" height="31" viewBox="0 0 36 31" fill="none" xmlns="http://www.w3.org/2000/svg">
<path d="M24.418 10.711L25.233 9.89694L26.047 10.7119L25.232 11.5259L24.418 10.711Z" fill="white" stroke="white" stroke-width="0.3"/>
<path d="M22.7878 9.08093L23.6028 8.26694L24.4168 9.08093L23.6028 9.89494L22.7878 9.08093Z" fill="white" stroke="white" stroke-width="0.3"/>
<path d="M21.1589 7.45292L21.9739 6.63892L22.7879 7.45292L21.9739 8.26692L21.1589 7.45292Z" fill="white" stroke="white" stroke-width="0.3"/>
<path d="M27.6758 13.9689L28.4908 13.1549L29.3048 13.9689L28.4908 14.7839L27.6758 13.9689Z" fill="white" stroke="white" stroke-width="0.3"/>
<path d="M26.0469 12.3399L26.8609 11.5249L27.6759 12.3389L26.8619 13.1539L26.0469 12.3399Z" fill="white" stroke="white" stroke-width="0.3"/>
<path d="M19.2288 21.5549C19.1227 21.5549 19.0186 21.5256 18.9281 21.4702C18.8375 21.4148 18.7641 21.3355 18.7158 21.2409L17.6758 19.2009L15.4148 19.5579C15.2939 19.5785 15.1695 19.5599 15.0599 19.5049C14.9502 19.4499 14.861 19.3613 14.8052 19.2521C14.7494 19.1428 14.73 19.0186 14.7497 18.8975C14.7694 18.7765 14.8272 18.6648 14.9148 18.5789L16.5338 16.9599L15.4968 14.9199C15.4414 14.8115 15.4218 14.6883 15.4408 14.5681C15.4597 14.4478 15.5163 14.3366 15.6024 14.2506C15.6885 14.1645 15.7997 14.1079 15.9199 14.0889C16.0402 14.0699 16.1634 14.0895 16.2718 14.1449L18.3128 15.1819L19.9318 13.5619C20.0177 13.4744 20.1293 13.4165 20.2504 13.3968C20.3715 13.3771 20.4957 13.3965 20.6049 13.4523C20.7142 13.5081 20.8028 13.5974 20.8578 13.707C20.9128 13.8167 20.9314 13.941 20.9108 14.0619L20.5448 16.3289L22.5858 17.3689C22.6941 17.4243 22.7822 17.5125 22.8373 17.621C22.8924 17.7295 22.9117 17.8526 22.8925 17.9728C22.8733 18.0929 22.8165 18.2039 22.7304 18.2898C22.6442 18.3757 22.533 18.4321 22.4128 18.4509L20.1508 18.8089L19.7958 21.0709C19.7768 21.1911 19.7202 21.3022 19.6341 21.3883C19.5481 21.4743 19.437 21.5309 19.3168 21.5499C19.2876 21.554 19.2582 21.5557 19.2288 21.5549ZM17.9998 17.9879C18.106 17.9881 18.2101 18.0176 18.3006 18.0732C18.3912 18.1288 18.4646 18.2083 18.5128 18.3029L18.9368 19.1359L19.0838 18.2139C19.1028 18.0937 19.1594 17.9826 19.2454 17.8966C19.3315 17.8105 19.4426 17.7539 19.5628 17.7349L20.4838 17.5879L19.6508 17.1639C19.5429 17.109 19.4551 17.0214 19.3998 16.9137C19.3445 16.806 19.3246 16.6836 19.3428 16.5639L19.4888 15.6399L18.8298 16.3009C18.7437 16.3868 18.6325 16.4433 18.5124 16.4621C18.3922 16.481 18.2691 16.4613 18.1608 16.4059L17.3268 15.9819L17.7518 16.8159C17.8071 16.9243 17.8266 17.0475 17.8075 17.1677C17.7885 17.2878 17.7319 17.3989 17.6458 17.4849L16.9838 18.1469L17.9078 18.0009C17.9376 17.9923 17.968 17.9863 17.9988 17.9829L17.9998 17.9879Z" fill="white" stroke="white" stroke-width="0.3"/>
<path d="M34.9369 9.15093L32.0859 6.29993L31.6789 6.70693C31.5193 6.87121 31.3286 7.00212 31.1179 7.09205C30.9073 7.18197 30.6808 7.22912 30.4518 7.23074C30.2227 7.23237 29.9957 7.18845 29.7838 7.10152C29.5718 7.0146 29.3793 6.88641 29.2174 6.72442C29.0555 6.56242 28.9274 6.36985 28.8405 6.1579C28.7537 5.94595 28.7098 5.71885 28.7116 5.48981C28.7133 5.26076 28.7605 5.03435 28.8505 4.82373C28.9405 4.6131 29.0715 4.42248 29.2359 4.26293L29.6429 3.85593L26.7919 1.00593C26.6314 0.845438 26.4409 0.718125 26.2312 0.631263C26.0216 0.544402 25.7968 0.499695 25.5699 0.499695C25.3429 0.499695 25.1182 0.544402 24.9085 0.631263C24.6989 0.718125 24.5083 0.845438 24.3479 1.00593L22.3119 3.04193L21.0899 1.81993C20.9294 1.65944 20.7389 1.53212 20.5292 1.44526C20.3196 1.3584 20.0948 1.31369 19.8679 1.31369C19.6409 1.31369 19.4162 1.3584 19.2065 1.44526C18.9969 1.53212 18.8063 1.65944 18.6459 1.81993L1.06288 19.4029C0.902384 19.5634 0.77507 19.7539 0.688209 19.9636C0.601348 20.1733 0.556641 20.398 0.556641 20.6249C0.556641 20.8519 0.601348 21.0766 0.688209 21.2863C0.77507 21.496 0.902384 21.6865 1.06288 21.8469L3.91388 24.6979L4.32088 24.2909C4.65001 23.9765 5.08769 23.801 5.54288 23.801C5.99807 23.801 6.43575 23.9765 6.76488 24.2909C6.92537 24.4514 7.05269 24.6419 7.13955 24.8516C7.22641 25.0613 7.27112 25.286 7.27112 25.5129C7.27112 25.7399 7.22641 25.9646 7.13955 26.1743C7.05269 26.384 6.92537 26.5745 6.76488 26.7349L6.35788 27.1419L9.20888 29.9939C9.53291 30.3178 9.97227 30.4997 10.4304 30.4997C10.8885 30.4997 11.3278 30.3178 11.6519 29.9939L13.6879 27.9569L14.9099 29.1789C15.2339 29.5028 15.6733 29.6847 16.1314 29.6847C16.5895 29.6847 17.0288 29.5028 17.3529 29.1789L34.9369 11.5949C35.0974 11.4345 35.2247 11.244 35.3116 11.0343C35.3984 10.8246 35.4431 10.5999 35.4431 10.3729C35.4431 10.146 35.3984 9.92125 35.3116 9.71158C35.2247 9.50191 35.0974 9.3114 34.9369 9.15093ZM10.8369 29.1779C10.7835 29.2316 10.72 29.2742 10.65 29.3032C10.5801 29.3323 10.5051 29.3473 10.4294 29.3473C10.3537 29.3473 10.2787 29.3323 10.2087 29.3032C10.1388 29.2742 10.0753 29.2316 10.0219 29.1779L7.94588 27.1009C8.31197 26.5473 8.4756 25.8842 8.40908 25.2238C8.34256 24.5634 8.04997 23.9462 7.58081 23.4767C7.11165 23.0072 6.49472 22.7142 5.83438 22.6471C5.17403 22.5801 4.5108 22.7433 3.95688 23.1089L1.87688 21.0299C1.76904 20.9219 1.70847 20.7756 1.70847 20.6229C1.70847 20.4703 1.76904 20.3239 1.87688 20.2159L19.4569 2.62993C19.5104 2.57639 19.5739 2.53391 19.6438 2.50492C19.7137 2.47594 19.7887 2.46102 19.8644 2.46102C19.9401 2.46102 20.015 2.47594 20.0849 2.50492C20.1549 2.53391 20.2184 2.57639 20.2719 2.62993L21.4969 3.85593L6.76488 18.5889C6.44105 18.913 6.25914 19.3523 6.25914 19.8104C6.25914 20.2685 6.44105 20.7079 6.76488 21.0319L9.61588 23.8829L10.0229 23.4759C10.1834 23.3155 10.3739 23.1882 10.5835 23.1013C10.7932 23.0145 11.0179 22.9698 11.2449 22.9698C11.4718 22.9698 11.6966 23.0145 11.9062 23.1013C12.1159 23.1882 12.3064 23.3155 12.4669 23.4759C12.6274 23.6364 12.7547 23.8269 12.8415 24.0366C12.9283 24.2463 12.973 24.471 12.973 24.6979C12.973 24.9249 12.9283 25.1496 12.8415 25.3593C12.7547 25.5689 12.6274 25.7595 12.4669 25.9199L12.0569 26.3299L12.8719 27.1439L10.8369 29.1779ZM34.1219 10.7779L16.5399 28.3639C16.4319 28.4718 16.2855 28.5323 16.1329 28.5323C15.9803 28.5323 15.8339 28.4718 15.7259 28.3639L13.6489 26.2869C14.0163 25.7331 14.1808 25.0692 14.1146 24.4078C14.0483 23.7465 13.7554 23.1284 13.2854 22.6584C12.8154 22.1884 12.1973 21.8955 11.536 21.8292C10.8747 21.763 10.2107 21.9275 9.65688 22.2949L7.57888 20.2179C7.47104 20.1099 7.41047 19.9636 7.41047 19.8109C7.41047 19.6583 7.47104 19.5119 7.57888 19.4039L25.1619 1.81993C25.2154 1.76639 25.2789 1.72391 25.3488 1.69492C25.4187 1.66594 25.4937 1.65102 25.5694 1.65102C25.6451 1.65102 25.72 1.66594 25.7899 1.69492C25.8599 1.72391 25.9234 1.76639 25.9769 1.81993L28.0569 3.89393C27.6899 4.44773 27.5257 5.11136 27.592 5.77239C27.6584 6.43342 27.9512 7.05118 28.4209 7.521C28.8906 7.99083 29.5083 8.28381 30.1693 8.35032C30.8303 8.41683 31.494 8.25277 32.0479 7.88593L34.1259 9.96393C34.2337 10.0719 34.2943 10.2183 34.2943 10.3709C34.2943 10.5236 34.2337 10.6699 34.1259 10.7779H34.1219Z" fill="white" stroke="white" stroke-width="0.3"/>
</svg>
