<svg width="18" height="20" viewBox="0 0 18 20" fill="none" xmlns="http://www.w3.org/2000/svg">
<g opacity="0.4">
<path d="M9.00001 0C7.9914 0 7.00544 0.309179 6.16681 0.888438C5.32818 1.4677 4.67456 2.29102 4.28858 3.25429C3.9026 4.21757 3.80161 5.27753 3.99838 6.30013C4.19515 7.32274 4.68084 8.26206 5.39403 8.99932C6.10723 9.73658 7.01589 10.2387 8.00512 10.4421C8.99434 10.6455 10.0197 10.5411 10.9515 10.1421C11.8834 9.74307 12.6798 9.06739 13.2402 8.20047C13.8005 7.33354 14.0996 6.31432 14.0996 5.27168C14.0981 3.87403 13.5603 2.53408 12.6043 1.54579C11.6482 0.557505 10.352 0.00158764 9.00001 0V0ZM9.00001 9.37265C8.21577 9.37265 7.44914 9.13225 6.79707 8.68185C6.145 8.23145 5.63677 7.59128 5.33665 6.84229C5.03654 6.0933 4.95801 5.26913 5.11101 4.47401C5.26401 3.67889 5.64166 2.94852 6.1962 2.37527C6.75074 1.80202 7.45726 1.41163 8.22643 1.25347C8.9956 1.09531 9.79287 1.17648 10.5174 1.48672C11.242 1.79696 11.8612 2.32234 12.2969 2.99641C12.7326 3.67048 12.9652 4.46298 12.9652 5.27368C12.9636 6.36031 12.5454 7.40197 11.8021 8.17034C11.0588 8.9387 10.0512 9.37106 9.00001 9.37265Z" fill="#888888"/>
<path d="M15.3452 13.9886C14.6675 13.2691 13.857 12.6973 12.9619 12.307C12.0667 11.9166 11.105 11.7157 10.1335 11.7161H7.86654C6.89502 11.7157 5.93327 11.9166 5.03811 12.307C4.14295 12.6973 3.33254 13.2691 2.65475 13.9886C1.27072 15.4314 0.495962 17.3823 0.500016 19.4142C0.500016 19.5696 0.559724 19.7186 0.666007 19.8284C0.772289 19.9383 0.91644 20.0001 1.06675 20.0001H16.9333C17.0836 20.0001 17.2277 19.9383 17.334 19.8284C17.4403 19.7186 17.5 19.5696 17.5 19.4142C17.504 17.3823 16.7293 15.4314 15.3452 13.9886ZM1.66056 18.8234C1.79274 17.2117 2.50292 15.7093 3.65168 14.6111C4.80044 13.5129 6.3048 12.8983 7.86944 12.8878H10.1364C11.7012 12.8983 13.2056 13.5131 14.3544 14.6115C15.5032 15.7098 16.2133 17.2125 16.3452 18.8243L1.66056 18.8234Z" fill="#888888"/>
</g>
</svg>
