<svg width="32" height="30" viewBox="0 0 32 30" fill="none" xmlns="http://www.w3.org/2000/svg">
<path d="M10.1515 0H1.87851C1.64539 0 1.42181 0.0926087 1.25696 0.257453C1.09212 0.422298 0.999512 0.645875 0.999512 0.879L0.999512 9.152C0.999512 9.38513 1.09212 9.6087 1.25696 9.77355C1.42181 9.93839 1.64539 10.031 1.87851 10.031C2.11164 10.031 2.33521 9.93839 2.50006 9.77355C2.6649 9.6087 2.75751 9.38513 2.75751 9.152V1.758H10.1515C10.3846 1.758 10.6082 1.66539 10.7731 1.50055C10.9379 1.3357 11.0305 1.11213 11.0305 0.879C11.0305 0.645875 10.9379 0.422298 10.7731 0.257453C10.6082 0.0926087 10.3846 0 10.1515 0V0Z" fill="white"/>
<path d="M30.1205 5.6888e-07H21.8475C21.6144 5.6888e-07 21.3908 0.0926092 21.226 0.257454C21.0611 0.422298 20.9685 0.645875 20.9685 0.879001C20.9685 1.11213 21.0611 1.3357 21.226 1.50055C21.3908 1.66539 21.6144 1.758 21.8475 1.758H29.2425V9.152C29.2425 9.38513 29.3351 9.6087 29.5 9.77355C29.6648 9.93839 29.8884 10.031 30.1215 10.031C30.3546 10.031 30.5782 9.93839 30.743 9.77355C30.9079 9.6087 31.0005 9.38513 31.0005 9.152V0.879001C31.0005 0.763484 30.9777 0.649101 30.9335 0.542391C30.8893 0.43568 30.8244 0.338736 30.7427 0.2571C30.661 0.175464 30.5639 0.110738 30.4572 0.0666232C30.3504 0.0225082 30.236 -0.000130849 30.1205 5.6888e-07Z" fill="white"/>
<path d="M10.1515 28.242H2.75751V20.847C2.75751 20.6139 2.6649 20.3903 2.50006 20.2254C2.33521 20.0606 2.11164 19.968 1.87851 19.968C1.64539 19.968 1.42181 20.0606 1.25696 20.2254C1.09212 20.3903 0.999512 20.6139 0.999512 20.847L0.999512 29.12C0.999512 29.3531 1.09212 29.5767 1.25696 29.7415C1.42181 29.9064 1.64539 29.999 1.87851 29.999H10.1515C10.3846 29.999 10.6082 29.9064 10.7731 29.7415C10.9379 29.5767 11.0305 29.3531 11.0305 29.12C11.0305 28.8869 10.9379 28.6633 10.7731 28.4984C10.6082 28.3336 10.3846 28.241 10.1515 28.241V28.242Z" fill="white"/>
<path d="M30.1205 19.969C29.8874 19.969 29.6638 20.0616 29.499 20.2264C29.3341 20.3913 29.2415 20.6149 29.2415 20.848V28.243H21.8465C21.6134 28.243 21.3898 28.3356 21.225 28.5005C21.0601 28.6653 20.9675 28.8889 20.9675 29.122C20.9675 29.3551 21.0601 29.5787 21.225 29.7435C21.3898 29.9084 21.6134 30.001 21.8465 30.001H30.1195C30.3527 30.001 30.5762 29.9084 30.7411 29.7435C30.9059 29.5787 30.9985 29.3551 30.9985 29.122V20.849C30.9987 20.7336 30.9761 20.6192 30.932 20.5125C30.888 20.4058 30.8233 20.3089 30.7418 20.2271C30.6603 20.1454 30.5634 20.0806 30.4568 20.0363C30.3503 19.992 30.236 19.9691 30.1205 19.969Z" fill="white"/>
<path d="M30.4995 14.75H1.49951C1.3669 14.75 1.23973 14.6973 1.14596 14.6036C1.05219 14.5098 0.999512 14.3826 0.999512 14.25C0.999512 14.1174 1.05219 13.9902 1.14596 13.8964C1.23973 13.8027 1.3669 13.75 1.49951 13.75H30.4995C30.6321 13.75 30.7593 13.8027 30.8531 13.8964C30.9468 13.9902 30.9995 14.1174 30.9995 14.25C30.9995 14.3826 30.9468 14.5098 30.8531 14.6036C30.7593 14.6973 30.6321 14.75 30.4995 14.75Z" fill="white" stroke="white" stroke-width="0.8"/>
</svg>
