<svg width="25" height="24" viewBox="0 0 25 24" fill="none" xmlns="http://www.w3.org/2000/svg">
<path d="M7.49858 6.97519C7.78101 4.15083 10.1576 2 12.9961 2C15.8345 2 18.2112 4.15083 18.4936 6.97519L18.7802 9.84133C18.7977 10.0156 18.8064 10.1028 18.8168 10.1885C18.961 11.3717 19.3678 12.5077 20.0074 13.5135C20.0537 13.5865 20.1023 13.6593 20.1995 13.8051L21.0606 15.0968C21.8469 16.2763 22.2401 16.866 22.0675 17.3412C22.0349 17.4311 21.9896 17.5158 21.9329 17.5928C21.6332 18 20.9244 18 19.5069 18H6.48532C5.06778 18 4.359 18 4.05927 17.5928C4.0026 17.5158 3.95726 17.4311 3.92464 17.3412C3.7521 16.866 4.14526 16.2763 4.93157 15.0968L5.79271 13.8051C5.88987 13.6593 5.93845 13.5865 5.98482 13.5135C6.62441 12.5077 7.03117 11.3717 7.17536 10.1885C7.18582 10.1028 7.19453 10.0156 7.21196 9.84133L7.49858 6.97519Z" fill="#1B1D21"/>
<path d="M11.0642 20.6294C11.1782 20.7357 11.4293 20.8297 11.7786 20.8967C12.1279 20.9637 12.5558 21 12.9961 21C13.4364 21 13.8643 20.9637 14.2136 20.8967C14.5629 20.8297 14.814 20.7357 14.9279 20.6294" stroke="#1B1D21" stroke-width="2" stroke-linecap="round"/>
</svg>
