<svg width="25" height="24" viewBox="0 0 25 24" fill="none" xmlns="http://www.w3.org/2000/svg">
<path fill-rule="evenodd" clip-rule="evenodd" d="M15.4512 2.47362C14.6902 2.16764 13.8608 2 12.9958 2C9.63977 2 6.8204 4.52345 6.44978 7.85899L6.19798 10.1252L6.19193 10.1793C6.0791 11.1625 5.75906 12.1106 5.25293 12.9611L5.22498 13.0077L4.64695 13.9711L4.6228 14.0114C4.38128 14.4138 4.16246 14.7785 4.01671 15.0879C3.86859 15.4024 3.71022 15.8286 3.78645 16.3117C3.8618 16.7893 4.10758 17.2233 4.4783 17.5337C4.85337 17.8476 5.30025 17.931 5.64614 17.9658C5.98651 18.0001 6.41176 18 6.88115 18L6.92805 18H19.0636L19.1105 18C19.5799 18 20.0051 18.0001 20.3455 17.9658C20.6914 17.931 21.1383 17.8476 21.5133 17.5337C21.8841 17.2233 22.1298 16.7893 22.2052 16.3117C22.2814 15.8286 22.1231 15.4024 21.9749 15.0879C21.8292 14.7785 21.6104 14.4138 21.3688 14.0114L21.3447 13.9711L20.7667 13.0077L20.7387 12.9611C20.36 12.3247 20.0854 11.6336 19.924 10.914C19.6232 10.9705 19.313 11 18.9958 11C18.6119 11 18.238 10.9567 17.8789 10.8748C18.0634 11.9715 18.4499 13.0259 19.02 13.9839L19.0517 14.0367L19.6297 15.0001C19.9032 15.456 20.068 15.733 20.1656 15.9401C20.1709 15.9514 20.1758 15.9621 20.1803 15.972C20.1694 15.9733 20.1578 15.9746 20.1453 15.9759C19.9176 15.9988 19.5952 16 19.0636 16H6.92805C6.39646 16 6.07408 15.9988 5.84634 15.9759C5.83389 15.9746 5.82224 15.9733 5.81138 15.972C5.81586 15.9621 5.82075 15.9514 5.82609 15.9401C5.92361 15.733 6.08843 15.456 6.36194 15.0001L6.93997 14.0367L6.9716 13.9839C7.62234 12.8904 8.03382 11.6714 8.17889 10.4073L8.18575 10.3461L8.43755 8.07985C8.69562 5.75718 10.6589 4 12.9958 4C13.4588 4 13.9072 4.06898 14.3305 4.19767C14.5825 3.54594 14.967 2.96023 15.4512 2.47362ZM17.9779 4.27804C17.39 4.62632 16.9958 5.26713 16.9958 6C16.9958 6.14503 17.0113 6.28645 17.0406 6.42272C17.161 6.6476 17.2633 6.88404 17.3456 7.13021C17.706 7.65547 18.3107 8 18.9958 8C19.1877 8 19.3733 7.97298 19.5489 7.92254L19.5419 7.85899C19.3896 6.48875 18.8241 5.25555 17.9779 4.27804Z" fill="#1B1D21"/>
<path d="M10.0981 17.6647C10.269 18.6215 10.6456 19.467 11.1696 20.0701C11.6935 20.6731 12.3354 21 12.9958 21C13.6563 21 14.2982 20.6731 14.8221 20.0701C15.3461 19.467 15.7227 18.6215 15.8936 17.6647" stroke="#1B1D21" stroke-width="2" stroke-linecap="round"/>
<circle cx="18.9958" cy="6" r="2.5" fill="#1B1D21" stroke="#1B1D21"/>
</svg>
