<svg width="36" height="36" viewBox="0 0 36 36" fill="none" xmlns="http://www.w3.org/2000/svg">
<path d="M4.97274 22.3708C5.16885 22.4726 5.70248 22.3774 6.57363 22.0851C6.82159 22.0191 7.16902 21.9201 7.61591 21.7881C8.0628 21.6561 8.47033 21.5381 8.8385 21.4339C9.20666 21.3306 9.55621 21.2375 9.88714 21.1546C9.94512 21.1466 10.121 21.1154 10.4146 21.0612C10.6543 21.0208 10.8906 20.9626 11.1217 20.8873C11.2869 20.8329 11.4375 20.7418 11.5623 20.6207C11.7643 20.3383 11.8589 19.993 11.8289 19.647C11.8412 19.1615 11.8121 18.6759 11.7419 18.1953C11.6725 17.7232 11.6352 17.247 11.6302 16.7698C11.5871 16.4456 11.6643 16.1168 11.8472 15.8456C11.9487 15.7528 12.0654 15.6781 12.1923 15.625C12.345 15.5543 12.466 15.5055 12.5522 15.4758C12.6385 15.4461 12.7962 15.4058 13.0239 15.3521C13.2515 15.2983 13.3774 15.2672 13.4015 15.2573C15.0498 14.7698 16.7582 14.5152 18.4771 14.5007C20.1959 14.515 21.9044 14.7697 23.5527 15.2573C23.5777 15.2653 23.7033 15.2967 23.9296 15.3513C24.1558 15.406 24.3131 15.4473 24.4012 15.4751C24.5237 15.5186 24.6438 15.5684 24.7611 15.6243C24.8865 15.6766 25.0021 15.75 25.1027 15.8414C25.2856 16.1125 25.3629 16.4413 25.3197 16.7656C25.3148 17.2432 25.2775 17.7199 25.208 18.1925C25.1361 18.6748 25.1056 19.1624 25.1168 19.6499C25.0868 19.9958 25.1813 20.3411 25.3834 20.6235C25.5081 20.7447 25.6587 20.8358 25.8239 20.8901C26.0552 20.9659 26.2918 21.0243 26.5317 21.0648C26.8259 21.1185 27.0017 21.1496 27.0592 21.1581C27.3897 21.2406 27.7392 21.3337 28.1079 21.4374C28.4765 21.5411 28.885 21.6578 29.3333 21.7874C29.7783 21.9213 30.1267 22.0198 30.3784 22.083C31.2448 22.3743 31.7773 22.4703 31.9757 22.3708C32.0885 22.316 32.1898 22.2402 32.2741 22.1474C32.5596 21.8424 32.8111 21.5074 33.0244 21.1482C33.2533 20.7969 33.45 20.4255 33.612 20.0388C33.8398 19.0976 33.7714 18.109 33.4161 17.2082C33.1161 16.1015 32.5411 15.0886 31.7445 14.2638C31.5271 14.0456 31.2951 13.8424 31.0501 13.6557C30.772 13.451 30.4803 13.2655 30.1769 13.1006C29.8374 12.9102 29.581 12.7735 29.4075 12.6905C29.234 12.6075 28.9196 12.4628 28.4642 12.2563C28.0103 12.0503 27.7331 11.9221 27.6327 11.8717C26.6093 11.3779 25.5359 10.9953 24.4309 10.7304C22.4752 10.2989 20.4761 10.0946 18.4735 10.1216C16.4717 10.0942 14.4734 10.2978 12.5183 10.7283C11.413 10.994 10.3394 11.3773 9.31579 11.8717C9.2168 11.9216 8.93961 12.0499 8.48424 12.2563C8.02886 12.4628 7.71443 12.6075 7.54095 12.6905C7.36559 12.7716 7.10891 12.9081 6.77092 13.0999C6.46899 13.2661 6.17864 13.4525 5.90188 13.6578C4.73535 14.5411 3.90037 15.7915 3.53166 17.2075C3.17578 18.1079 3.10663 19.0962 3.33367 20.0373C3.49548 20.4242 3.69216 20.7956 3.92128 21.1468C4.13445 21.506 4.38601 21.841 4.67152 22.1459C4.75646 22.2396 4.85875 22.316 4.97274 22.3708Z" fill="white"/>
</svg>
