<svg width="25" height="24" viewBox="0 0 25 24" fill="none" xmlns="http://www.w3.org/2000/svg">
<path fill-rule="evenodd" clip-rule="evenodd" d="M20.9958 11C20.9958 8.19108 20.9958 6.78661 20.3217 5.77772C20.0299 5.34096 19.6549 4.96596 19.2181 4.67412C18.2092 4 16.8048 4 13.9958 4H11.9958C9.18692 4 7.78246 4 6.77357 4.67412C6.33681 4.96596 5.96181 5.34096 5.66997 5.77772C4.99585 6.78661 4.99585 8.19108 4.99585 11C4.99585 13.8089 4.99585 15.2134 5.66997 16.2223C5.96181 16.659 6.33681 17.034 6.77357 17.3259C7.65492 17.9148 8.83815 17.9892 10.9958 17.9986V18L12.1014 20.2111C12.4699 20.9482 13.5218 20.9482 13.8903 20.2111L14.9958 18V17.9986C17.1536 17.9892 18.3368 17.9148 19.2181 17.3259C19.6549 17.034 20.0299 16.659 20.3217 16.2223C20.9958 15.2134 20.9958 13.8089 20.9958 11ZM9.99585 8C9.44356 8 8.99585 8.44772 8.99585 9C8.99585 9.55228 9.44356 10 9.99585 10H15.9958C16.5481 10 16.9958 9.55228 16.9958 9C16.9958 8.44772 16.5481 8 15.9958 8H9.99585ZM9.99585 12C9.44356 12 8.99585 12.4477 8.99585 13C8.99585 13.5523 9.44356 14 9.99585 14H12.9958C13.5481 14 13.9958 13.5523 13.9958 13C13.9958 12.4477 13.5481 12 12.9958 12H9.99585Z" fill="#1B1D21"/>
</svg>
