<svg width="16" height="16" viewBox="0 0 16 16" fill="none" xmlns="http://www.w3.org/2000/svg">
<path fill-rule="evenodd" clip-rule="evenodd" d="M1.53296 7.52857C1.79404 7.26823 2.21732 7.26823 2.4784 7.52857L5.15249 10.1952C5.41357 10.4556 5.41357 10.8777 5.15249 11.138C4.89142 11.3984 4.46813 11.3984 4.20706 11.138L1.53296 8.47138C1.27189 8.21103 1.27189 7.78892 1.53296 7.52857Z" fill="#0049C6"/>
<path fill-rule="evenodd" clip-rule="evenodd" d="M6.21241 8.19526C6.47348 7.93491 6.89677 7.93491 7.15784 8.19526L9.16341 10.1953C9.42448 10.4556 9.42448 10.8777 9.16341 11.1381C8.90234 11.3984 8.47905 11.3984 8.21798 11.1381L6.21241 9.13807C5.95133 8.87772 5.95133 8.45561 6.21241 8.19526Z" fill="#0049C6"/>
<path fill-rule="evenodd" clip-rule="evenodd" d="M10.5007 4.86195C10.7617 5.1223 10.7617 5.54441 10.5007 5.80476L5.15247 11.1381C4.8914 11.3984 4.46811 11.3984 4.20704 11.1381C3.94596 10.8777 3.94596 10.4556 4.20704 10.1953L9.55522 4.86195C9.8163 4.6016 10.2396 4.6016 10.5007 4.86195Z" fill="#0049C6"/>
<path fill-rule="evenodd" clip-rule="evenodd" d="M14.5116 4.86195C14.7727 5.1223 14.7727 5.54441 14.5116 5.80476L9.16346 11.1381C8.90238 11.3984 8.4791 11.3984 8.21802 11.1381C7.95695 10.8777 7.95695 10.4556 8.21802 10.1953L13.5662 4.86195C13.8273 4.6016 14.2506 4.6016 14.5116 4.86195Z" fill="#0049C6"/>
</svg>
