<svg width="25" height="24" viewBox="0 0 25 24" fill="none" xmlns="http://www.w3.org/2000/svg">
<path fill-rule="evenodd" clip-rule="evenodd" d="M21.9958 12C21.9958 16.9706 17.9664 21 12.9958 21C8.02529 21 3.99585 16.9706 3.99585 12C3.99585 7.02944 8.02529 3 12.9958 3C17.9664 3 21.9958 7.02944 21.9958 12ZM7.58164 16L8.28874 15.2929L11.5816 12L8.28874 8.70711L7.58164 8L8.99585 6.58579L9.70296 7.29289L12.9958 10.5858L16.2887 7.29289L16.9958 6.58579L18.4101 8L17.703 8.70711L14.4101 12L17.703 15.2929L18.4101 16L16.9958 17.4142L16.2887 16.7071L12.9958 13.4142L9.70296 16.7071L8.99585 17.4142L7.58164 16Z" fill="#1B1D21"/>
</svg>
