<svg width="24" height="24" viewBox="0 0 24 24" fill="none" xmlns="http://www.w3.org/2000/svg">
<path d="M17.6 0H6.4C2.86538 0 0 2.86538 0 6.4V17.6C0 21.1346 2.86538 24 6.4 24H17.6C21.1346 24 24 21.1346 24 17.6V6.4C24 2.86538 21.1346 0 17.6 0Z" fill="#2BA8C4"/>
<path d="M7.55566 10.6664C7.55566 9.68461 8.3516 8.88867 9.33344 8.88867H14.6668C15.6486 8.88867 16.4446 9.68461 16.4446 10.6664C16.4446 10.9119 16.2456 11.1109 16.0001 11.1109H8.00011C7.75465 11.1109 7.55566 10.9119 7.55566 10.6664Z" fill="white"/>
<path fill-rule="evenodd" clip-rule="evenodd" d="M7.55566 12.8889C7.55566 14.3463 7.55566 15.075 7.91736 15.5916C8.05118 15.7827 8.2174 15.9489 8.40851 16.0827C8.92507 16.4444 9.65378 16.4444 11.1112 16.4444H12.889C14.3464 16.4444 15.0751 16.4444 15.5917 16.0827C15.7828 15.9489 15.949 15.7827 16.0829 15.5916C16.4446 15.075 16.4446 14.3463 16.4446 12.8889C16.4446 12.5245 16.4446 12.3424 16.3541 12.2132C16.3207 12.1654 16.2791 12.1239 16.2313 12.0904C16.1022 12 15.92 12 15.5557 12H8.44455C8.08019 12 7.89801 12 7.76888 12.0904C7.7211 12.1239 7.67954 12.1654 7.64609 12.2132C7.55566 12.3424 7.55566 12.5245 7.55566 12.8889ZM9.77789 13.3333C9.77789 13.0879 9.97687 12.8889 10.2223 12.8889H11.1112C11.3567 12.8889 11.5557 13.0879 11.5557 13.3333C11.5557 13.5788 11.3567 13.7778 11.1112 13.7778H10.2223C9.97687 13.7778 9.77789 13.5788 9.77789 13.3333ZM10.2223 14.6667C9.97687 14.6667 9.77789 14.8657 9.77789 15.1111C9.77789 15.3566 9.97687 15.5556 10.2223 15.5556H11.1112C11.3567 15.5556 11.5557 15.3566 11.5557 15.1111C11.5557 14.8657 11.3567 14.6667 11.1112 14.6667H10.2223ZM12.4446 13.3333C12.4446 13.0879 12.6435 12.8889 12.889 12.8889H13.7779C14.0233 12.8889 14.2223 13.0879 14.2223 13.3333C14.2223 13.5788 14.0233 13.7778 13.7779 13.7778H12.889C12.6435 13.7778 12.4446 13.5788 12.4446 13.3333ZM12.889 14.6667C12.6435 14.6667 12.4446 14.8657 12.4446 15.1111C12.4446 15.3566 12.6435 15.5556 12.889 15.5556H13.7779C14.0233 15.5556 14.2223 15.3566 14.2223 15.1111C14.2223 14.8657 14.0233 14.6667 13.7779 14.6667H12.889Z" fill="white"/>
<path d="M9.77783 8L9.77783 9.33333" stroke="white" stroke-width="2" stroke-linecap="round"/>
<path d="M14.2224 8L14.2224 9.33333" stroke="white" stroke-width="2" stroke-linecap="round"/>
</svg>
