<svg width="25" height="24" viewBox="0 0 25 24" fill="none" xmlns="http://www.w3.org/2000/svg">
<mask id="path-1-outside-1_416_1384" maskUnits="userSpaceOnUse" x="3.99585" y="4" width="17" height="17" fill="black">
<rect fill="white" x="3.99585" y="4" width="17" height="17"/>
<path d="M14.5816 7.41421L7.38756 14.6083C7.19291 14.8029 7.09559 14.9003 7.02861 15.0186C6.96164 15.1368 6.92826 15.2704 6.86149 15.5374L6.19796 18.1915C6.1077 18.5526 6.06258 18.7331 6.16267 18.8332C6.26275 18.9333 6.44327 18.8881 6.80429 18.7979L6.8043 18.7979L9.45842 18.1344C9.72548 18.0676 9.85901 18.0342 9.9773 17.9672C10.0956 17.9003 10.1929 17.8029 10.3876 17.6083L17.5816 10.4142L17.5816 10.4142C18.2483 9.74755 18.5816 9.41421 18.5816 9C18.5816 8.58579 18.2483 8.25245 17.5816 7.58579L17.4101 7.41421C16.7434 6.74755 16.4101 6.41421 15.9958 6.41421C15.5816 6.41421 15.2483 6.74755 14.5816 7.41421Z"/>
</mask>
<path d="M7.38756 14.6083L8.80178 16.0225L8.80178 16.0225L7.38756 14.6083ZM14.5816 7.41421L13.1674 6L13.1674 6L14.5816 7.41421ZM17.4101 7.41421L15.9958 8.82843L15.9959 8.82843L17.4101 7.41421ZM17.5816 7.58579L18.9958 6.17157L18.9958 6.17157L17.5816 7.58579ZM17.5816 10.4142L18.9958 11.8284L17.5816 10.4142ZM10.3876 17.6083L8.97335 16.1941L8.97335 16.1941L10.3876 17.6083ZM6.86149 15.5374L8.80178 16.0225L8.80178 16.0225L6.86149 15.5374ZM6.19796 18.1915L4.25768 17.7065H4.25768L6.19796 18.1915ZM6.8043 18.7979L6.31923 16.8576L6.23209 16.8794L6.14726 16.9089L6.8043 18.7979ZM9.45842 18.1344L8.97336 16.1941L8.97335 16.1941L9.45842 18.1344ZM6.16267 18.8332L7.57688 17.419L7.57688 17.419L6.16267 18.8332ZM6.80429 18.7979L7.28936 20.7382L7.3765 20.7164L7.46133 20.6869L6.80429 18.7979ZM9.9773 17.9672L8.9919 16.2268L8.9919 16.2268L9.9773 17.9672ZM17.5816 10.4142L18.9959 11.8284L18.9959 11.8284L17.5816 10.4142ZM7.02861 15.0186L5.28821 14.0332L5.28821 14.0332L7.02861 15.0186ZM8.80178 16.0225L15.9959 8.82843L13.1674 6L5.97335 13.1941L8.80178 16.0225ZM15.9959 8.82843L16.1674 9L18.9958 6.17157L18.8243 6L15.9959 8.82843ZM16.1674 9L8.97335 16.1941L11.8018 19.0225L18.9958 11.8284L16.1674 9ZM4.92121 15.0524L4.25768 17.7065L8.13825 18.6766L8.80178 16.0225L4.92121 15.0524ZM7.28937 20.7382L9.94349 20.0746L8.97335 16.1941L6.31923 16.8576L7.28937 20.7382ZM4.25768 17.7065C4.22885 17.8218 4.1464 18.1296 4.11844 18.4155C4.08805 18.7261 4.06094 19.5599 4.74845 20.2474L7.57688 17.419C7.84256 17.6847 7.99499 18.0005 8.06229 18.2928C8.12098 18.5478 8.1055 18.7429 8.09943 18.8049C8.09283 18.8724 8.08376 18.904 8.09285 18.8631C8.10122 18.8253 8.11373 18.7747 8.13825 18.6766L4.25768 17.7065ZM6.14726 16.9089L6.14725 16.9089L7.46133 20.6869L7.46134 20.6869L6.14726 16.9089ZM6.31923 16.8576C6.22116 16.8821 6.17052 16.8946 6.13279 16.903C6.0918 16.9121 6.12347 16.903 6.19091 16.8964C6.25297 16.8903 6.44808 16.8749 6.70302 16.9336C6.9954 17.0009 7.3112 17.1533 7.57688 17.419L4.74845 20.2474C5.43596 20.9349 6.26972 20.9078 6.58034 20.8774C6.86624 20.8494 7.17407 20.767 7.28936 20.7382L6.31923 16.8576ZM8.97335 16.1941C8.94864 16.2188 8.92755 16.2399 8.90799 16.2593C8.88856 16.2787 8.87256 16.2945 8.85878 16.308C8.84501 16.3215 8.83496 16.3312 8.82757 16.3382C8.82397 16.3416 8.8213 16.3441 8.81945 16.3458C8.81761 16.3475 8.81675 16.3483 8.81677 16.3482C8.81679 16.3482 8.81783 16.3473 8.8198 16.3456C8.82177 16.3439 8.82478 16.3413 8.82876 16.338C8.83671 16.3314 8.84877 16.3216 8.86451 16.3098C8.8804 16.2979 8.89946 16.2843 8.92148 16.2699C8.94361 16.2553 8.96716 16.2408 8.9919 16.2268L10.9627 19.7076C11.3718 19.476 11.6822 19.1421 11.8018 19.0225L8.97335 16.1941ZM9.94349 20.0746C10.1075 20.0336 10.5536 19.9393 10.9627 19.7076L8.9919 16.2268C9.01664 16.2128 9.04115 16.2001 9.06502 16.1886C9.08877 16.1772 9.11023 16.1678 9.12861 16.1603C9.14683 16.1529 9.16138 16.1475 9.17114 16.1441C9.17602 16.1424 9.17979 16.1412 9.18227 16.1404C9.18475 16.1395 9.18609 16.1391 9.18611 16.1391C9.18613 16.1391 9.18503 16.1395 9.18261 16.1402C9.1802 16.1409 9.17669 16.1419 9.17191 16.1432C9.1621 16.1459 9.14863 16.1496 9.12999 16.1544C9.11133 16.1593 9.08953 16.1649 9.06295 16.1716C9.03619 16.1784 9.00725 16.1856 8.97336 16.1941L9.94349 20.0746ZM16.1674 9C16.3393 9.17192 16.4657 9.29842 16.5697 9.40785C16.6744 9.518 16.7221 9.57518 16.7416 9.60073C16.7603 9.62524 16.7185 9.57638 16.6732 9.46782C16.6213 9.34332 16.5816 9.18102 16.5816 9H20.5816C20.5816 8.17978 20.2241 7.57075 19.9217 7.1744C19.6545 6.82421 19.2892 6.46493 18.9958 6.17157L16.1674 9ZM18.9958 11.8284L18.9959 11.8284L16.1674 8.99999L16.1674 9L18.9958 11.8284ZM18.9959 11.8284C19.2892 11.5351 19.6545 11.1758 19.9217 10.8256C20.2241 10.4292 20.5816 9.82022 20.5816 9H16.5816C16.5816 8.81898 16.6213 8.65668 16.6732 8.53218C16.7185 8.42362 16.7603 8.37476 16.7416 8.39927C16.7221 8.42482 16.6744 8.482 16.5697 8.59215C16.4657 8.70157 16.3394 8.82807 16.1674 9L18.9959 11.8284ZM15.9959 8.82843C16.1678 8.6565 16.2943 8.53019 16.4037 8.42615C16.5138 8.32142 16.571 8.27375 16.5966 8.25426C16.6211 8.23555 16.5722 8.27736 16.4637 8.32264C16.3392 8.37455 16.1769 8.41421 15.9958 8.41421V4.41421C15.1756 4.41421 14.5666 4.77177 14.1703 5.07417C13.8201 5.34136 13.4608 5.70664 13.1674 6L15.9959 8.82843ZM18.8243 6C18.5309 5.70665 18.1716 5.34136 17.8214 5.07417C17.4251 4.77177 16.8161 4.41421 15.9958 4.41421V8.41421C15.8148 8.41421 15.6525 8.37455 15.528 8.32264C15.4195 8.27736 15.3706 8.23555 15.3951 8.25426C15.4207 8.27375 15.4779 8.32142 15.588 8.42615C15.6974 8.53019 15.8239 8.6565 15.9958 8.82843L18.8243 6ZM5.97335 13.1941C5.85378 13.3136 5.51986 13.624 5.28821 14.0332L8.76901 16.0039C8.755 16.0287 8.74055 16.0522 8.72599 16.0744C8.7115 16.0964 8.69792 16.1155 8.68601 16.1313C8.67422 16.1471 8.66448 16.1591 8.65787 16.1671C8.65456 16.1711 8.65198 16.1741 8.65027 16.1761C8.64856 16.178 8.64763 16.1791 8.64761 16.1791C8.64759 16.1791 8.64837 16.1782 8.65007 16.1764C8.65178 16.1745 8.65427 16.1719 8.65769 16.1683C8.66469 16.1609 8.67437 16.1508 8.68785 16.1371C8.70135 16.1233 8.71717 16.1073 8.73651 16.0879C8.75598 16.0683 8.77707 16.0472 8.80178 16.0225L5.97335 13.1941ZM8.80178 16.0225C8.81025 15.9886 8.81749 15.9597 8.82424 15.9329C8.83095 15.9063 8.83653 15.8845 8.84141 15.8659C8.84628 15.8472 8.84992 15.8337 8.85265 15.8239C8.85398 15.8192 8.85499 15.8157 8.85569 15.8132C8.85639 15.8108 8.85673 15.8097 8.85673 15.8097C8.85672 15.8098 8.85631 15.8111 8.8555 15.8136C8.85469 15.8161 8.85343 15.8198 8.85173 15.8247C8.84831 15.8345 8.84298 15.849 8.83555 15.8672C8.82805 15.8856 8.81869 15.9071 8.80726 15.9308C8.79578 15.9547 8.78302 15.9792 8.76901 16.0039L5.28821 14.0332C5.05656 14.4423 4.96222 14.8883 4.92121 15.0524L8.80178 16.0225Z" fill="#1B1D21" mask="url(#path-1-outside-1_416_1384)"/>
<path d="M13.4958 7.5L16.4958 5.5L19.4958 8.5L17.4958 11.5L13.4958 7.5Z" fill="#1B1D21"/>
</svg>
