<svg width="24" height="24" viewBox="0 0 24 24" fill="none" xmlns="http://www.w3.org/2000/svg">
<g clip-path="url(#clip0_416_1451)">
<path d="M4.09999 12.0271V15.7781C4.09999 16.1247 3.84754 16.065 3.38799 16.5446C3.13749 16.8071 2.69649 16.6371 2.69799 16.2741C2.70049 15.4881 2.70749 14.1441 2.70199 11.7476C2.70099 11.4541 3.00599 11.2596 3.27199 11.384L3.87009 11.665C4.01039 11.731 4.09999 11.872 4.09999 12.0271ZM23.298 7.08157L12.9155 2.20357C12.3379 1.93117 11.6673 1.92922 11.0845 2.20357L0.702488 7.08157C-0.236262 7.52227 -0.232062 8.85437 0.702488 9.29307L3.87399 10.7831C3.98499 10.8356 4.11549 10.7756 4.15049 10.6576C4.25149 10.3196 4.49899 10.0371 4.83449 9.89557L11.1565 7.23607C11.3605 7.15057 11.595 7.24607 11.6805 7.45007C11.766 7.65357 11.6705 7.88807 11.467 7.97357L5.14499 10.6331C4.99649 10.6956 4.89999 10.8406 4.89999 11.0016V16.5631C4.08964 16.7497 3.44999 17.4793 3.44999 18.3896V20.9711C3.44999 21.0736 3.48949 21.1726 3.56049 21.2466C4.51614 22.2533 6.13359 22.2536 7.08949 21.2466C7.16049 21.1726 7.19999 21.0736 7.19999 20.9711V18.4231C7.19999 17.5106 6.55199 16.7321 5.69999 16.5536V15.7446C6.92649 15.9306 7.99999 16.9616 7.99999 18.4231V20.2336C7.99999 20.4226 8.13199 20.5861 8.31649 20.6256C12.3635 21.4906 16.549 20.8901 20.1745 18.9866C20.869 18.6221 21.3 17.9096 21.3 17.1266V11.7456C21.3 11.4526 20.995 11.2586 20.73 11.3836L13.256 14.8951C12.4445 15.2766 11.528 15.2631 10.744 14.8951L5.92989 12.6331C5.78954 12.5672 5.69999 12.4261 5.69999 12.2711C5.69999 11.9779 6.00484 11.7843 6.27014 11.909L11.0845 14.1711C11.6667 14.4442 12.3323 14.4447 12.9155 14.1711L23.2975 9.29312C24.234 8.85347 24.2342 7.52157 23.298 7.08157Z" fill="black"/>
</g>
<defs>
<clipPath id="clip0_416_1451">
<rect width="24" height="24" fill="white"/>
</clipPath>
</defs>
</svg>
