<svg width="25" height="24" viewBox="0 0 25 24" fill="none" xmlns="http://www.w3.org/2000/svg">
<path fill-rule="evenodd" clip-rule="evenodd" d="M6.27031 10.1262C5.99585 10.7229 5.99585 11.4018 5.99585 12.7595V16.9999C5.99585 18.8856 5.99585 19.8284 6.58164 20.4142C7.11318 20.9457 7.9387 20.9949 9.49585 20.9995V16C9.49585 14.8954 10.3913 14 11.4958 14H14.4958C15.6004 14 16.4958 14.8954 16.4958 16V20.9995C18.053 20.9949 18.8785 20.9457 19.4101 20.4142C19.9958 19.8284 19.9958 18.8856 19.9958 16.9999V12.7595C19.9958 11.4018 19.9958 10.7229 19.7214 10.1262C19.4469 9.52943 18.9315 9.08763 17.9006 8.20401L16.9006 7.34687C15.0373 5.74974 14.1056 4.95117 12.9958 4.95117C11.8861 4.95117 10.9544 5.74974 9.0911 7.34687L8.0911 8.20401C7.06022 9.08763 6.54477 9.52943 6.27031 10.1262ZM14.4958 20.9999V16H11.4958V20.9999H14.4958Z" fill="#1B1D21"/>
</svg>
