<svg width="25" height="24" viewBox="0 0 25 24" fill="none" xmlns="http://www.w3.org/2000/svg">
<path d="M5.99585 12.7595C5.99585 11.4018 5.99585 10.7229 6.27031 10.1262C6.54477 9.52943 7.06022 9.08763 8.0911 8.20401L9.0911 7.34687C10.9544 5.74974 11.8861 4.95117 12.9958 4.95117C14.1056 4.95117 15.0373 5.74974 16.9006 7.34687L17.9006 8.20401C18.9315 9.08763 19.4469 9.52943 19.7214 10.1262C19.9958 10.7229 19.9958 11.4018 19.9958 12.7595V16.9999C19.9958 18.8856 19.9958 19.8284 19.4101 20.4142C18.8243 20.9999 17.8815 20.9999 15.9958 20.9999H9.99585C8.11023 20.9999 7.16742 20.9999 6.58164 20.4142C5.99585 19.8284 5.99585 18.8856 5.99585 16.9999V12.7595Z" stroke="#1B1D21"/>
<path d="M15.4958 21V16C15.4958 15.4477 15.0481 15 14.4958 15H11.4958C10.9436 15 10.4958 15.4477 10.4958 16V21" stroke="#1B1D21" stroke-linecap="round" stroke-linejoin="round"/>
</svg>
