<svg width="19" height="18" viewBox="0 0 19 18" fill="none" xmlns="http://www.w3.org/2000/svg">
<path d="M8.27166 4.62411L7.55621 4.39908L8.27166 4.62411ZM6.73013 7.21109L7.18033 6.61124L6.73013 7.21109ZM7.09404 8.36802L7.80948 8.59306L7.09404 8.36802ZM8.63556 9.52495L8.18536 8.9251V8.9251L8.63556 9.52495ZM9.81318 9.52495L10.2634 8.9251L9.81318 9.52495ZM11.3547 8.36802L10.6393 8.59306V8.59306L11.3547 8.36802ZM11.7186 7.21109L11.2684 6.61124L11.7186 7.21109ZM10.1771 4.62411L10.8925 4.39908L10.1771 4.62411ZM11.5299 16.0141L11.0497 16.5902L11.0497 16.5902L11.5299 16.0141ZM10.8471 15.445L11.3273 14.8689H11.3273L10.8471 15.445ZM7.60162 15.445L7.12142 14.8689H7.12142L7.60162 15.445ZM6.91886 16.0141L7.39906 16.5902L7.39906 16.5902L6.91886 16.0141ZM13.5878 10.6818L12.8379 10.6691L12.8377 10.6763L12.8378 10.6835L13.5878 10.6818ZM13.588 10.6667L13.0257 10.1704L13.588 10.6667ZM4.86103 10.667L5.42329 10.1706L4.86103 10.667ZM7.31894 6.08914C8.09375 6.08914 8.75877 5.57507 8.9871 4.84915L7.55621 4.39908C7.51633 4.52588 7.4121 4.58914 7.31894 4.58914V6.08914ZM7.18033 6.61124C7.07619 6.53308 7.03964 6.41283 7.08167 6.2792C7.10247 6.21309 7.13856 6.16408 7.17533 6.1347C7.20695 6.10943 7.2497 6.08914 7.31894 6.08914V4.58914C5.57379 4.58914 4.96202 6.82183 6.27994 7.81094L7.18033 6.61124ZM7.80948 8.59306C8.03667 7.87079 7.79201 7.07031 7.18033 6.61124L6.27994 7.81094C6.37045 7.87888 6.41962 8.01254 6.37859 8.14298L7.80948 8.59306ZM8.18536 8.9251C8.12437 8.97088 8.0779 8.97822 8.04461 8.97718C8.00501 8.97595 7.95596 8.96099 7.90814 8.9251C7.81495 8.85516 7.76327 8.73999 7.80948 8.59306L6.37859 8.14298C6.12494 8.94942 6.45148 9.70732 7.00775 10.1248C7.56752 10.5449 8.39606 10.6424 9.08576 10.1248L8.18536 8.9251ZM10.2634 8.9251C9.64553 8.4614 8.80321 8.4614 8.18536 8.9251L9.08576 10.1248C9.17011 10.0615 9.27863 10.0615 9.36298 10.1248L10.2634 8.9251ZM10.6393 8.59306C10.6855 8.73999 10.6338 8.85516 10.5406 8.9251C10.4928 8.96099 10.4437 8.97596 10.4041 8.97719C10.3708 8.97822 10.3244 8.97088 10.2634 8.9251L9.36298 10.1248C10.0527 10.6424 10.8812 10.5449 11.441 10.1248C11.9973 9.70732 12.3238 8.94942 12.0701 8.14298L10.6393 8.59306ZM11.2684 6.61124C10.6567 7.07031 10.4121 7.87079 10.6393 8.59306L12.0701 8.14298C12.0291 8.01254 12.0783 7.87888 12.1688 7.81094L11.2684 6.61124ZM11.1298 6.08914C11.199 6.08914 11.2418 6.10943 11.2734 6.1347C11.3102 6.16408 11.3463 6.21309 11.3671 6.2792C11.4091 6.41283 11.3725 6.53308 11.2684 6.61124L12.1688 7.81094C13.4867 6.82183 12.875 4.58914 11.1298 4.58914V6.08914ZM9.46164 4.84915C9.68997 5.57507 10.355 6.08914 11.1298 6.08914V4.58914C11.0366 4.58914 10.9324 4.52588 10.8925 4.39908L9.46164 4.84915ZM10.8925 4.39908C10.3725 2.74576 8.07625 2.74576 7.55621 4.39908L8.9871 4.84915C9.01343 4.76545 9.05286 4.72407 9.08548 4.7011C9.12239 4.67512 9.17079 4.65909 9.22437 4.65909C9.27795 4.65909 9.32635 4.67512 9.36326 4.7011C9.39588 4.72407 9.43531 4.76545 9.46164 4.84915L10.8925 4.39908ZM4.15619 6.81818C4.15619 4.0191 6.42529 1.75 9.22437 1.75V0.25C5.59686 0.25 2.65619 3.19068 2.65619 6.81818H4.15619ZM9.22437 1.75C12.0235 1.75 14.2926 4.0191 14.2926 6.81818H15.7926C15.7926 3.19068 12.8519 0.25 9.22437 0.25V1.75ZM12.838 11.0615V15.0936H14.338V11.0615H12.838ZM5.61073 15.0936V11.0615H4.11073V15.0936H5.61073ZM12.0101 15.438L11.3273 14.8689L10.3669 16.0211L11.0497 16.5902L12.0101 15.438ZM7.12142 14.8689L6.43867 15.438L7.39906 16.5902L8.08182 16.0211L7.12142 14.8689ZM11.3273 14.8689C10.9548 14.5584 10.6232 14.2803 10.3236 14.0878C10.006 13.8838 9.65205 13.7268 9.22437 13.7268V15.2268C9.25789 15.2268 9.32817 15.2312 9.51302 15.3499C9.71588 15.4802 9.96504 15.6862 10.3669 16.0211L11.3273 14.8689ZM8.08182 16.0211C8.4837 15.6862 8.73286 15.4802 8.93573 15.3499C9.12058 15.2312 9.19085 15.2268 9.22437 15.2268V13.7268C8.79669 13.7268 8.44277 13.8838 8.12513 14.0878C7.82551 14.2803 7.4939 14.5584 7.12142 14.8689L8.08182 16.0211ZM4.11073 15.0936C4.11073 15.6362 4.1087 16.1308 4.16427 16.5041C4.21852 16.8685 4.36711 17.4008 4.91742 17.6469L5.52984 16.2777C5.71726 16.3615 5.6844 16.5282 5.64792 16.2832C5.61277 16.0471 5.61073 15.6885 5.61073 15.0936H4.11073ZM6.43867 15.438C5.97528 15.8242 5.69127 16.0585 5.48077 16.1882C5.2593 16.3247 5.35185 16.198 5.52984 16.2777L4.91742 17.6469C5.45831 17.8889 5.95435 17.6583 6.26772 17.4652C6.59206 17.2653 6.97422 16.9443 7.39906 16.5902L6.43867 15.438ZM12.838 15.0936C12.838 15.6885 12.836 16.0471 12.8008 16.2832C12.7643 16.5282 12.7315 16.3615 12.9189 16.2777L13.5313 17.6469C14.0816 17.4008 14.2302 16.8685 14.2845 16.5041C14.34 16.1308 14.338 15.6362 14.338 15.0936H12.838ZM11.0497 16.5902C11.4745 16.9443 11.8567 17.2653 12.181 17.4652C12.4944 17.6583 12.9904 17.8889 13.5313 17.6469L12.9189 16.2777C13.0969 16.198 13.1894 16.3247 12.968 16.1882C12.7575 16.0585 12.4735 15.8242 12.0101 15.438L11.0497 16.5902ZM14.338 11.0615C14.338 10.9274 14.338 10.8003 14.3377 10.6802L12.8378 10.6835C12.838 10.8016 12.838 10.927 12.838 11.0615H14.338ZM14.2926 6.81818C14.2926 8.10404 13.8147 9.27646 13.0257 10.1704L14.1503 11.163C15.1719 10.0055 15.7926 8.48344 15.7926 6.81818H14.2926ZM13.0257 10.1704C12.0959 11.2238 10.738 11.8864 9.22437 11.8864V13.3864C11.1862 13.3864 12.9479 12.5253 14.1503 11.163L13.0257 10.1704ZM14.3376 10.6945L14.3379 10.6794L12.8381 10.654L12.8379 10.6691L14.3376 10.6945ZM5.61073 11.0615C5.61073 10.9214 5.61073 10.7911 5.61102 10.6687L4.11103 10.6652C4.11073 10.7897 4.11073 10.9218 4.11073 11.0615H5.61073ZM9.22437 11.8864C7.71088 11.8864 6.35306 11.2239 5.42329 10.1706L4.29876 11.1633C5.50118 12.5255 7.2627 13.3864 9.22437 13.3864V11.8864ZM5.42329 10.1706C4.63418 9.27672 4.15619 8.10418 4.15619 6.81818H2.65619C2.65619 8.48361 3.27701 10.0059 4.29876 11.1633L5.42329 10.1706Z" fill="#0049C6"/>
</svg>
