<svg width="25" height="24" viewBox="0 0 25 24" fill="none" xmlns="http://www.w3.org/2000/svg">
<path d="M5.28544 21.0451L5.72628 20.4383L5.28544 21.0451ZM4.17928 19.9389L4.78604 19.4981L4.17928 19.9389ZM20.2695 19.9389L19.6627 19.4981L20.2695 19.9389ZM19.1633 21.0451L19.6041 21.6518L19.1633 21.0451ZM19.1633 4.95492L19.6041 4.34815L19.1633 4.95492ZM20.2695 6.06107L19.6627 6.50191L20.2695 6.06107ZM5.28544 4.95492L5.72628 5.56168H5.72628L5.28544 4.95492ZM4.17928 6.06107L4.78604 6.50191L4.17928 6.06107ZM19.4422 16.0616L19.3249 15.3208H19.3249L19.4422 16.0616ZM15.2859 20.2178L14.5452 20.1005V20.1005L15.2859 20.2178ZM14.4744 5C14.4744 5.41421 14.8102 5.75 15.2244 5.75C15.6386 5.75 15.9744 5.41421 15.9744 5H14.4744ZM15.9744 2C15.9744 1.58579 15.6386 1.25 15.2244 1.25C14.8102 1.25 14.4744 1.58579 14.4744 2H15.9744ZM8.47437 5C8.47437 5.41421 8.81015 5.75 9.22437 5.75C9.63858 5.75 9.97437 5.41421 9.97437 5H8.47437ZM9.97437 2C9.97437 1.58579 9.63858 1.25 9.22437 1.25C8.81015 1.25 8.47437 1.58579 8.47437 2H9.97437ZM21.1954 16L21.945 16.0257L21.1954 16ZM15.2244 21.9711L15.25 22.7206L15.2244 21.9711ZM12.2244 21.25C10.3328 21.25 8.97436 21.249 7.92241 21.135C6.8845 21.0225 6.23428 20.8074 5.72628 20.4383L4.8446 21.6518C5.65092 22.2377 6.5953 22.5 7.76084 22.6263C8.91234 22.751 10.3662 22.75 12.2244 22.75V21.25ZM2.47437 13C2.47437 14.8582 2.47334 16.312 2.59809 17.4635C2.72437 18.6291 2.98669 19.5734 3.57252 20.3798L4.78604 19.4981C4.41696 18.9901 4.20182 18.3399 4.08937 17.302C3.97539 16.25 3.97437 14.8916 3.97437 13H2.47437ZM5.72628 20.4383C5.36548 20.1762 5.04818 19.8589 4.78604 19.4981L3.57252 20.3798C3.92718 20.8679 4.35646 21.2972 4.8446 21.6518L5.72628 20.4383ZM19.6627 19.4981C19.4006 19.8589 19.0833 20.1762 18.7225 20.4383L19.6041 21.6518C20.0923 21.2972 20.5216 20.8679 20.8762 20.3798L19.6627 19.4981ZM21.9744 13C21.9744 11.1418 21.9754 9.68798 21.8506 8.53648C21.7244 7.37094 21.462 6.42656 20.8762 5.62023L19.6627 6.50191C20.0318 7.00992 20.2469 7.66013 20.3594 8.69804C20.4733 9.74999 20.4744 11.1084 20.4744 13H21.9744ZM18.7225 5.56168C19.0833 5.82382 19.4006 6.14111 19.6627 6.50191L20.8762 5.62023C20.5216 5.13209 20.0923 4.70281 19.6041 4.34815L18.7225 5.56168ZM3.97437 13C3.97437 11.1084 3.97539 9.74999 4.08937 8.69804C4.20182 7.66013 4.41696 7.00992 4.78604 6.50191L3.57252 5.62023C2.98669 6.42656 2.72437 7.37094 2.59809 8.53648C2.47334 9.68798 2.47437 11.1418 2.47437 13H3.97437ZM4.8446 4.34815C4.35646 4.70281 3.92718 5.13209 3.57252 5.62023L4.78604 6.50191C5.04818 6.14111 5.36548 5.82382 5.72628 5.56168L4.8446 4.34815ZM19.3249 15.3208C16.8645 15.7105 14.9348 17.6401 14.5452 20.1005L16.0267 20.3352C16.3147 18.5166 17.741 17.0904 19.5595 16.8023L19.3249 15.3208ZM9.97437 5V4.02893H8.47437V5H9.97437ZM9.97437 4.02893V2H8.47437V4.02893H9.97437ZM12.2244 3.25C11.0596 3.25 10.0586 3.24991 9.19868 3.27937L9.25005 4.77849C10.0788 4.75009 11.0513 4.75 12.2244 4.75V3.25ZM9.19868 3.27937C7.32524 3.34356 5.94826 3.5463 4.8446 4.34815L5.72628 5.56168C6.43183 5.04907 7.39512 4.84204 9.25005 4.77849L9.19868 3.27937ZM15.9744 5V4.02893H14.4744V5H15.9744ZM15.9744 4.02893V2H14.4744V4.02893H15.9744ZM12.2244 4.75C13.3974 4.75 14.3699 4.75009 15.1987 4.77849L15.25 3.27937C14.3901 3.24991 13.3891 3.25 12.2244 3.25V4.75ZM15.1987 4.77849C17.0536 4.84204 18.0169 5.04907 18.7225 5.56168L19.6041 4.34815C18.5005 3.5463 17.1235 3.34356 15.25 3.27937L15.1987 4.77849ZM21.1954 15.25C20.3132 15.25 19.7822 15.2484 19.3249 15.3208L19.5595 16.8023C19.8714 16.7529 20.2582 16.75 21.1954 16.75L21.1954 15.25ZM20.4744 13C20.4744 14.1731 20.4743 15.1456 20.4459 15.9743L21.945 16.0257C21.9745 15.1658 21.9744 14.1648 21.9744 13H20.4744ZM20.4459 15.9743C20.3823 17.8292 20.1753 18.7925 19.6627 19.4981L20.8762 20.3798C21.6781 19.2761 21.8808 17.8991 21.945 16.0257L20.4459 15.9743ZM15.9744 21.9711C15.9744 21.0338 15.9773 20.647 16.0267 20.3352L14.5452 20.1005C14.4727 20.5579 14.4744 21.0888 14.4744 21.9711L15.9744 21.9711ZM12.2244 22.75C13.3891 22.75 14.3901 22.7501 15.25 22.7206L15.1987 21.2215C14.3699 21.2499 13.3974 21.25 12.2244 21.25V22.75ZM15.25 22.7206C17.1235 22.6564 18.5005 22.4537 19.6041 21.6518L18.7225 20.4383C18.0169 20.9509 17.0536 21.158 15.1987 21.2215L15.25 22.7206Z" fill="#0049C6"/>
<path d="M8.22437 9C8.22437 9.55228 7.77665 10 7.22437 10C6.67208 10 6.22437 9.55228 6.22437 9C6.22437 8.44772 6.67208 8 7.22437 8C7.77665 8 8.22437 8.44772 8.22437 9Z" fill="#0049C6"/>
<path d="M8.22437 13C8.22437 13.5523 7.77665 14 7.22437 14C6.67208 14 6.22437 13.5523 6.22437 13C6.22437 12.4477 6.67208 12 7.22437 12C7.77665 12 8.22437 12.4477 8.22437 13Z" fill="#0049C6"/>
<path d="M13.2244 9C13.2244 9.55228 12.7766 10 12.2244 10C11.6721 10 11.2244 9.55228 11.2244 9C11.2244 8.44772 11.6721 8 12.2244 8C12.7766 8 13.2244 8.44772 13.2244 9Z" fill="#0049C6"/>
<path d="M13.2244 13C13.2244 13.5523 12.7766 14 12.2244 14C11.6721 14 11.2244 13.5523 11.2244 13C11.2244 12.4477 11.6721 12 12.2244 12C12.7766 12 13.2244 12.4477 13.2244 13Z" fill="#0049C6"/>
<path d="M13.2244 17C13.2244 17.5523 12.7766 18 12.2244 18C11.6721 18 11.2244 17.5523 11.2244 17C11.2244 16.4477 11.6721 16 12.2244 16C12.7766 16 13.2244 16.4477 13.2244 17Z" fill="#0049C6"/>
<path d="M18.2244 9C18.2244 9.55228 17.7766 10 17.2244 10C16.6721 10 16.2244 9.55228 16.2244 9C16.2244 8.44772 16.6721 8 17.2244 8C17.7766 8 18.2244 8.44772 18.2244 9Z" fill="#0049C6"/>
<path d="M18.2244 13C18.2244 13.5523 17.7766 14 17.2244 14C16.6721 14 16.2244 13.5523 16.2244 13C16.2244 12.4477 16.6721 12 17.2244 12C17.7766 12 18.2244 12.4477 18.2244 13Z" fill="#0049C6"/>
<path d="M8.22437 17C8.22437 17.5523 7.77665 18 7.22437 18C6.67208 18 6.22437 17.5523 6.22437 17C6.22437 16.4477 6.67208 16 7.22437 16C7.77665 16 8.22437 16.4477 8.22437 17Z" fill="#0049C6"/>
</svg>
