<svg width="16" height="16" viewBox="0 0 16 16" fill="none" xmlns="http://www.w3.org/2000/svg">
<path d="M1.33337 6.00016C1.33337 5.38018 1.33337 5.07019 1.40152 4.81586C1.58646 4.12567 2.12555 3.58658 2.81574 3.40164C3.07007 3.3335 3.38006 3.3335 4.00004 3.3335H12C12.62 3.3335 12.93 3.3335 13.1843 3.40164C13.8745 3.58658 14.4136 4.12567 14.5986 4.81586C14.6667 5.07019 14.6667 5.38018 14.6667 6.00016C14.6667 6.15516 14.6667 6.23266 14.6497 6.29624C14.6034 6.46878 14.4687 6.60356 14.2961 6.64979C14.2325 6.66683 14.155 6.66683 14 6.66683H2.00004C1.84505 6.66683 1.76755 6.66683 1.70396 6.64979C1.53142 6.60356 1.39664 6.46878 1.35041 6.29624C1.33337 6.23266 1.33337 6.15516 1.33337 6.00016Z" fill="white"/>
<path fill-rule="evenodd" clip-rule="evenodd" d="M1.33337 10.6667C1.33337 12.5523 1.33337 13.4951 1.91916 14.0809C2.50495 14.6667 3.44776 14.6667 5.33337 14.6667H10.6667C12.5523 14.6667 13.4951 14.6667 14.0809 14.0809C14.6667 13.4951 14.6667 12.5523 14.6667 10.6667V9C14.6667 8.5286 14.6667 8.29289 14.5203 8.14645C14.3738 8 14.1381 8 13.6667 8H2.33337C1.86197 8 1.62627 8 1.47982 8.14645C1.33337 8.29289 1.33337 8.5286 1.33337 9V10.6667ZM4.66671 10C4.66671 9.845 4.66671 9.76751 4.68374 9.70392C4.72998 9.53138 4.86475 9.3966 5.0373 9.35037C5.10088 9.33333 5.17838 9.33333 5.33337 9.33333H6.66671C6.8217 9.33333 6.8992 9.33333 6.96278 9.35037C7.13533 9.3966 7.2701 9.53138 7.31634 9.70392C7.33337 9.76751 7.33337 9.845 7.33337 10C7.33337 10.155 7.33337 10.2325 7.31634 10.2961C7.2701 10.4686 7.13533 10.6034 6.96278 10.6496C6.8992 10.6667 6.8217 10.6667 6.66671 10.6667H5.33337C5.17838 10.6667 5.10088 10.6667 5.0373 10.6496C4.86475 10.6034 4.72998 10.4686 4.68374 10.2961C4.66671 10.2325 4.66671 10.155 4.66671 10ZM4.68374 12.3706C4.66671 12.4342 4.66671 12.5117 4.66671 12.6667C4.66671 12.8217 4.66671 12.8992 4.68374 12.9627C4.72998 13.1353 4.86475 13.2701 5.0373 13.3163C5.10088 13.3333 5.17838 13.3333 5.33337 13.3333H6.66671C6.8217 13.3333 6.8992 13.3333 6.96278 13.3163C7.13533 13.2701 7.2701 13.1353 7.31634 12.9627C7.33337 12.8992 7.33337 12.8217 7.33337 12.6667C7.33337 12.5117 7.33337 12.4342 7.31634 12.3706C7.2701 12.198 7.13533 12.0633 6.96278 12.017C6.8992 12 6.8217 12 6.66671 12H5.33337C5.17838 12 5.10088 12 5.0373 12.017C4.86475 12.0633 4.72998 12.198 4.68374 12.3706ZM8.66671 10C8.66671 9.845 8.66671 9.76751 8.68374 9.70392C8.72998 9.53138 8.86475 9.3966 9.0373 9.35037C9.10088 9.33333 9.17838 9.33333 9.33337 9.33333H10.6667C10.8217 9.33333 10.8992 9.33333 10.9628 9.35037C11.1353 9.3966 11.2701 9.53138 11.3163 9.70392C11.3334 9.76751 11.3334 9.845 11.3334 10C11.3334 10.155 11.3334 10.2325 11.3163 10.2961C11.2701 10.4686 11.1353 10.6034 10.9628 10.6496C10.8992 10.6667 10.8217 10.6667 10.6667 10.6667H9.33338C9.17838 10.6667 9.10088 10.6667 9.0373 10.6496C8.86475 10.6034 8.72998 10.4686 8.68374 10.2961C8.66671 10.2325 8.66671 10.155 8.66671 10ZM8.68374 12.3706C8.66671 12.4342 8.66671 12.5117 8.66671 12.6667C8.66671 12.8217 8.66671 12.8992 8.68374 12.9627C8.72998 13.1353 8.86475 13.2701 9.0373 13.3163C9.10088 13.3333 9.17838 13.3333 9.33337 13.3333H10.6667C10.8217 13.3333 10.8992 13.3333 10.9628 13.3163C11.1353 13.2701 11.2701 13.1353 11.3163 12.9627C11.3334 12.8992 11.3334 12.8217 11.3334 12.6667C11.3334 12.5117 11.3334 12.4342 11.3163 12.3706C11.2701 12.198 11.1353 12.0633 10.9628 12.017C10.8992 12 10.8217 12 10.6667 12H9.33337C9.17838 12 9.10088 12 9.0373 12.017C8.86475 12.0633 8.72998 12.198 8.68374 12.3706Z" fill="white"/>
<path d="M4.66663 2L4.66663 4" stroke="white" stroke-width="2" stroke-linecap="round"/>
<path d="M11.3334 2L11.3334 4" stroke="white" stroke-width="2" stroke-linecap="round"/>
</svg>
