<svg width="19" height="18" viewBox="0 0 19 18" fill="none" xmlns="http://www.w3.org/2000/svg">
<path d="M4.04096 8.4556V10.3426C4.04096 11.7209 4.04096 12.41 4.22217 12.9677C4.5884 14.0949 5.47211 14.9786 6.59927 15.3448C7.15697 15.526 7.8461 15.526 9.22434 15.526C10.6026 15.526 11.2917 15.526 11.8494 15.3448C12.9766 14.9786 13.8603 14.0949 14.2265 12.9677C14.4077 12.41 14.4077 11.7209 14.4077 10.3426V8.45803M14.4077 8.45803C13.6989 8.74532 12.8232 9.05737 11.7811 9.42955L10.2206 9.98687C9.72751 10.163 9.48095 10.2511 9.22442 10.2511C8.96789 10.2511 8.72133 10.163 8.2282 9.98687L6.66771 9.42955C3.40909 8.26574 1.77979 7.68384 1.77979 6.64017C1.77979 5.59651 3.40909 5.01461 6.66771 3.8508L8.2282 3.29348C8.72133 3.11736 8.96789 3.0293 9.22442 3.0293C9.48095 3.0293 9.72751 3.11736 10.2206 3.29348L11.7811 3.8508C15.0398 5.01461 16.6691 5.59651 16.6691 6.64017C16.6691 7.35008 15.9154 7.84695 14.4077 8.45803Z" stroke="white" stroke-width="1.5"/>
<path fill-rule="evenodd" clip-rule="evenodd" d="M6.43455 3.34428L8.04136 2.77041C8.06585 2.76166 8.09005 2.753 8.11396 2.74444C8.53587 2.59335 8.86952 2.47388 9.22436 2.47388C9.57921 2.47388 9.91286 2.59335 10.3348 2.74444C10.3587 2.753 10.3829 2.76166 10.4074 2.77041L12.0142 3.34427C13.6044 3.91221 14.8542 4.35856 15.7022 4.79721C16.5218 5.22118 17.2244 5.76613 17.2244 6.64012C17.2244 7.5141 16.5218 8.05906 15.7022 8.48302C14.8542 8.92167 13.6044 9.36803 12.0142 9.93596L10.4074 10.5098C10.3829 10.5186 10.3587 10.5272 10.3348 10.5358C9.91286 10.6869 9.57921 10.8064 9.22436 10.8064C8.86952 10.8064 8.53587 10.6869 8.11396 10.5358C8.09005 10.5272 8.06585 10.5186 8.04136 10.5098L6.43454 9.93596C4.84433 9.36803 3.59453 8.92167 2.74655 8.48302C1.92695 8.05906 1.22437 7.5141 1.22437 6.64012C1.22437 5.76613 1.92695 5.22118 2.74655 4.79721C3.59453 4.35856 4.84433 3.91221 6.43455 3.34428ZM3.25687 5.78376C2.44716 6.20262 2.33509 6.47044 2.33509 6.64012C2.33509 6.80979 2.44716 7.07762 3.25687 7.49648C4.02998 7.89639 5.20811 8.3185 6.85445 8.90648L8.41494 9.46381C8.94442 9.65291 9.08627 9.69563 9.22436 9.69563C9.36246 9.69563 9.50431 9.65291 10.0338 9.46381L11.5943 8.90648C13.2406 8.3185 14.4187 7.8964 15.1919 7.49648C16.0016 7.07762 16.1136 6.80979 16.1136 6.64012C16.1136 6.47044 16.0016 6.20262 15.1919 5.78376C14.4187 5.38384 13.2406 4.96174 11.5943 4.37375L10.0338 3.81643C9.50431 3.62732 9.36246 3.5846 9.22436 3.5846C9.08627 3.5846 8.94442 3.62732 8.41494 3.81643L6.85445 4.37375C5.20811 4.96174 4.02998 5.38384 3.25687 5.78376ZM1.81945 12.3789C1.51273 12.3789 1.22437 12.1389 1.22437 11.8322V6.64012C1.22437 6.3334 1.51273 6.08476 1.81945 6.08476C2.12617 6.08476 2.33509 6.3334 2.33509 6.64012L2.37481 7.54836V11.8235C2.37481 12.1302 2.12617 12.3789 1.81945 12.3789Z" fill="white"/>
</svg>
