<svg width="18" height="17" viewBox="0 0 18 17" fill="none" xmlns="http://www.w3.org/2000/svg">
<path d="M16.9625 12.9004C16.9171 12.7639 16.6294 12.5631 16.0993 12.298C15.9558 12.2143 15.7513 12.1007 15.4857 11.9572C15.2201 11.8137 14.9801 11.6804 14.7657 11.5572C14.5497 11.4362 14.3471 11.3188 14.1577 11.2052C14.1273 11.1823 14.0327 11.1159 13.8738 11.006C13.7466 10.915 13.6129 10.8335 13.4738 10.762C13.3744 10.7118 13.2651 10.6844 13.1538 10.682C12.9324 10.7178 12.7311 10.8312 12.5858 11.002C12.3579 11.2188 12.1488 11.4546 11.961 11.7068C11.7763 11.9551 11.5751 12.1905 11.3586 12.4116C11.2293 12.5783 11.0435 12.6921 10.8362 12.7316C10.7483 12.7274 10.6617 12.7082 10.5802 12.6748C10.4778 12.6372 10.4002 12.6044 10.3474 12.578C10.2946 12.5516 10.2042 12.498 10.0746 12.418C9.94504 12.338 9.87385 12.2948 9.85865 12.2876C8.88077 11.7563 7.98196 11.091 7.18831 10.3108C6.40555 9.52003 5.73723 8.62364 5.20275 7.64771C5.19529 7.63278 5.15182 7.56078 5.07236 7.43171C4.99289 7.30265 4.93956 7.21172 4.91236 7.15892C4.87614 7.08303 4.84383 7.00533 4.81556 6.92613C4.78211 6.84468 4.7629 6.75809 4.75876 6.67013C4.79818 6.46282 4.91198 6.27704 5.07876 6.14774C5.30185 5.93102 5.53946 5.72976 5.78994 5.54536C6.04221 5.35752 6.27799 5.1485 6.49472 4.92057C6.66551 4.7753 6.77895 4.57393 6.81472 4.35259C6.81241 4.24127 6.78507 4.1319 6.73472 4.03259C6.6634 3.89341 6.58184 3.75971 6.49072 3.6326C6.38086 3.47261 6.31446 3.37794 6.29153 3.34861C6.17793 3.15928 6.0606 2.95662 5.93954 2.74062C5.81847 2.52463 5.68514 2.28464 5.53955 2.02064C5.39555 1.75398 5.28195 1.54945 5.19875 1.40706C4.93636 0.871068 4.7369 0.580409 4.60037 0.535076C4.5238 0.508625 4.4429 0.496952 4.36197 0.500677C4.09199 0.509573 3.82377 0.54766 3.56199 0.614274C3.29581 0.670577 3.03528 0.750904 2.78361 0.854269C2.24861 1.18077 1.82733 1.66434 1.57724 2.23904C1.20923 2.88352 1.01001 3.61053 0.99805 4.35259C0.997794 4.55219 1.01116 4.75159 1.03805 4.94937C1.07058 5.17022 1.11816 5.38859 1.18045 5.60296C1.24871 5.84508 1.30364 6.02508 1.34524 6.14294C1.38684 6.26081 1.46444 6.47094 1.57804 6.77333C1.69163 7.07626 1.7599 7.26292 1.78283 7.33332C2.02523 8.02804 2.34143 8.69477 2.72601 9.32207C3.4239 10.4134 4.2453 11.4205 5.17395 12.3236C6.07828 13.2527 7.08679 14.0744 8.17948 14.7723C8.80684 15.1568 9.47356 15.473 10.1682 15.7155C10.2365 15.7379 10.4232 15.8062 10.7282 15.9203C11.0333 16.0344 11.2434 16.112 11.3586 16.1531C11.4759 16.1947 11.6559 16.2496 11.8986 16.3179C12.113 16.3801 12.3314 16.4276 12.5522 16.4603C13.4906 16.59 14.4454 16.3998 15.2625 15.9203C15.8374 15.6709 16.3212 15.2502 16.6481 14.7155C16.7516 14.4639 16.8319 14.2034 16.8881 13.9372C16.9548 13.6754 16.9928 13.4072 17.0017 13.1372C17.0038 13.0565 16.9905 12.9761 16.9625 12.9004Z" fill="white"/>
</svg>
