<svg width="25" height="24" viewBox="0 0 25 24" fill="none" xmlns="http://www.w3.org/2000/svg">
<path d="M15.0052 19.7005L14.415 19.2377L15.0052 19.7005ZM9.44357 19.7005L8.8534 20.1633L9.44357 19.7005ZM12.2244 22.0055V21.2555V22.0055ZM9.22437 9.25C8.81015 9.25 8.47437 9.58579 8.47437 10C8.47437 10.4142 8.81015 10.75 9.22437 10.75V9.25ZM15.2244 10.75C15.6386 10.75 15.9744 10.4142 15.9744 10C15.9744 9.58579 15.6386 9.25 15.2244 9.25V10.75ZM11.4744 13C11.4744 13.4142 11.8102 13.75 12.2244 13.75C12.6386 13.75 12.9744 13.4142 12.9744 13H11.4744ZM12.9744 7C12.9744 6.58579 12.6386 6.25 12.2244 6.25C11.8102 6.25 11.4744 6.58579 11.4744 7H12.9744ZM19.4744 9.6087C19.4744 10.8352 18.8347 12.4764 17.8281 14.256C16.8381 16.0063 15.5586 17.7794 14.415 19.2377L15.5953 20.1633C16.7615 18.6762 18.0916 16.837 19.1337 14.9945C20.1593 13.1814 20.9744 11.2494 20.9744 9.6087H19.4744ZM10.0337 19.2377C8.89015 17.7794 7.61065 16.0063 6.62062 14.256C5.61399 12.4764 4.97437 10.8352 4.97437 9.6087H3.47437C3.47437 11.2494 4.28947 13.1814 5.315 14.9945C6.35714 16.837 7.68724 18.6762 8.8534 20.1633L10.0337 19.2377ZM4.97437 9.6087C4.97437 5.21571 8.27115 1.75 12.2244 1.75V0.25C7.34103 0.25 3.47437 4.49277 3.47437 9.6087H4.97437ZM12.2244 1.75C16.1776 1.75 19.4744 5.21571 19.4744 9.6087H20.9744C20.9744 4.49277 17.1077 0.25 12.2244 0.25V1.75ZM14.415 19.2377C13.796 20.027 13.3885 20.5426 13.0235 20.8741C12.6907 21.1764 12.4685 21.2555 12.2244 21.2555V22.7555C12.9534 22.7555 13.5191 22.4504 14.0321 21.9844C14.513 21.5476 15.0093 20.9107 15.5953 20.1633L14.415 19.2377ZM8.8534 20.1633C9.43948 20.9107 9.93572 21.5476 10.4166 21.9844C10.9296 22.4504 11.4953 22.7555 12.2244 22.7555V21.2555C11.9802 21.2555 11.758 21.1764 11.4252 20.8741C11.0602 20.5426 10.6527 20.027 10.0337 19.2377L8.8534 20.1633ZM9.22437 10.75H15.2244V9.25H9.22437V10.75ZM12.9744 13L12.9744 7H11.4744L11.4744 13H12.9744Z" fill="#0049C6"/>
</svg>
