<svg width="15" height="15" viewBox="0 0 15 15" fill="none" xmlns="http://www.w3.org/2000/svg">
<path fill-rule="evenodd" clip-rule="evenodd" d="M9.63126 1.56554L11.2543 2.5026L5.99218 5.54071V7.79194C5.99218 7.88191 6.03677 7.95914 6.1147 8.00411L7.33447 8.70835C7.37341 8.73085 7.418 8.73085 7.45696 8.70835C7.49593 8.68585 7.51822 8.64724 7.51822 8.60226V6.42176L12.7804 3.38364L14.4034 4.32073C14.5593 4.41067 14.6484 4.56515 14.6484 4.7451V10.2555C14.6484 10.4354 14.5593 10.5899 14.4034 10.6799L9.63129 13.435C9.47549 13.525 9.2971 13.525 9.1413 13.435L4.36916 10.6799C4.3285 10.6564 4.2924 10.6285 4.26123 10.5969H0.703125C0.509004 10.5969 0.351562 10.4395 0.351562 10.2454C0.351562 10.0513 0.509004 9.89382 0.703125 9.89382H4.12412V7.85182H2.09824C1.90412 7.85182 1.74668 7.69438 1.74668 7.50026C1.74668 7.30614 1.90412 7.1487 2.09824 7.1487H4.12412V4.81371H0.703154C0.509033 4.81371 0.351592 4.65627 0.351592 4.46215C0.351592 4.26803 0.509033 4.11058 0.703154 4.11058H4.71009C4.71741 4.11058 4.72465 4.11082 4.73186 4.11126L7.76244 2.36153H6.69923C6.50511 2.36153 6.34767 2.20409 6.34767 2.00997C6.34767 1.81585 6.50511 1.65841 6.69923 1.65841H8.98028L9.14127 1.56545C9.2971 1.47557 9.47546 1.47557 9.63126 1.56554ZM4.93831 1.65847H1.80527C1.61115 1.65847 1.45371 1.81591 1.45371 2.01003C1.45371 2.20415 1.61115 2.36159 1.80527 2.36159H4.93834C5.13246 2.36159 5.2899 2.20415 5.2899 2.01003C5.2899 1.81591 5.13243 1.65847 4.93831 1.65847Z" fill="white"/>
</svg>
