<svg width="24" height="24" viewBox="0 0 24 24" fill="none" xmlns="http://www.w3.org/2000/svg">
<g clip-path="url(#clip0_734_23292)">
<path d="M11.8174 8.19898L15.253 11.6346L15.2693 11.4546C15.2693 9.64954 13.8024 8.18262 11.9973 8.18262L11.8174 8.19898Z" fill="#1B1D21"/>
<path d="M11.9973 6.0013C15.0076 6.0013 17.4507 8.4444 17.4507 11.4546C17.4507 12.1581 17.3089 12.8289 17.0635 13.4451L20.2537 16.6353C21.9006 15.261 23.1985 13.4833 24.0001 11.4546C22.1078 6.66664 17.4561 3.27466 11.9974 3.27466C10.4704 3.27466 9.009 3.54731 7.65112 4.0381L10.007 6.38846C10.6231 6.14854 11.2939 6.0013 11.9973 6.0013Z" fill="#1B1D21"/>
<path d="M1.09064 3.02926L3.57735 5.51597L4.07362 6.01224C2.27403 7.41919 0.850716 9.28969 0 11.4546C1.88686 16.2426 6.54397 19.6346 11.9973 19.6346C13.6878 19.6346 15.302 19.3074 16.7799 18.7129L17.2434 19.1765L20.4227 22.3612L21.8133 20.9761L2.48124 1.63867L1.09064 3.02926ZM7.12204 9.05518L8.80711 10.7403C8.75803 10.9748 8.72531 11.2092 8.72531 11.4546C8.72531 13.2597 10.1922 14.7266 11.9973 14.7266C12.2427 14.7266 12.4772 14.6939 12.7062 14.6448L14.3913 16.3299C13.666 16.6898 12.859 16.9079 11.9973 16.9079C8.98707 16.9079 6.54397 14.4648 6.54397 11.4546C6.54397 10.593 6.76212 9.78591 7.12204 9.05518Z" fill="#1B1D21"/>
</g>
<defs>
<clipPath id="clip0_734_23292">
<rect width="24" height="24" fill="white"/>
</clipPath>
</defs>
</svg>
