<svg width="24" height="24" viewBox="0 0 24 24" fill="none" xmlns="http://www.w3.org/2000/svg">
<path fill-rule="evenodd" clip-rule="evenodd" d="M3.62388 3.27158C5.87314 1.11618 8.88524 -0.0594742 11.9999 0.00231825C15.1146 -0.058608 18.1263 1.11787 20.375 3.27386C22.6236 5.42986 23.9258 8.38946 23.9959 11.5039C23.9249 14.6184 22.622 17.5777 20.3727 19.7331C18.1235 21.8885 15.1114 23.0641 11.9967 23.0023C10.4765 23.0052 8.96881 22.7281 7.54901 22.1848L4.76201 23.9255C4.68621 23.9723 4.59925 23.998 4.51017 23.9999C4.42109 24.0018 4.33313 23.9798 4.25542 23.9362C4.17771 23.8926 4.11308 23.829 4.06824 23.752C4.02341 23.675 4.00001 23.5874 4.00046 23.4983V20.0585C2.75482 19.006 1.7522 17.6959 1.06169 16.2185C0.371192 14.7411 0.00922289 13.1315 0.000732422 11.5007C0.0716913 8.38626 1.37461 5.42698 3.62388 3.27158ZM19.6065 8.01325C19.7241 8.03912 19.8284 8.10666 19.9001 8.20337C19.9723 8.29902 20.0076 8.41742 19.9997 8.53696C19.9918 8.65651 19.9411 8.76923 19.8569 8.85452L13.8574 14.8541C13.7682 14.9428 13.6489 14.9946 13.5232 14.9994C13.3975 15.0041 13.2746 14.9614 13.179 14.8797L9.94083 12.1055L4.74119 14.9405C4.63564 14.9998 4.51217 15.0186 4.39374 14.9936C4.27531 14.9686 4.17 14.9015 4.09741 14.8046C4.02482 14.7077 3.9899 14.5878 3.99914 14.4671C4.00838 14.3464 4.06114 14.2332 4.14763 14.1485L10.1472 8.14895C10.2362 8.05994 10.3556 8.00784 10.4814 8.00309C10.6072 7.99834 10.7301 8.04132 10.8256 8.12337L14.0605 10.8976L19.2602 8.06256C19.3659 8.00489 19.4889 7.98737 19.6065 8.01325Z" fill="#1B1D21"/>
</svg>
