<svg width="16" height="26" viewBox="0 0 16 26" fill="none" xmlns="http://www.w3.org/2000/svg">
<path d="M11.667 26.0003H4.333C4.07123 26.0003 3.82018 25.8963 3.63509 25.7112C3.44999 25.5261 3.346 25.275 3.346 25.0133C3.346 24.7515 3.44999 24.5005 3.63509 24.3154C3.82018 24.1303 4.07123 24.0263 4.333 24.0263H7V21.9873C5.08071 21.7568 3.31121 20.8347 2.02274 19.3936C0.734266 17.9525 0.01515 16.0913 0 14.1583L0 10.5403C0.0031578 10.2771 0.109907 10.0259 0.297102 9.8409C0.484297 9.65596 0.73685 9.55225 1 9.55227C1.26315 9.55225 1.5157 9.65596 1.7029 9.8409C1.89009 10.0259 1.99684 10.2771 2 10.5403V14.1583C2 15.7496 2.63214 17.2757 3.75736 18.4009C4.88258 19.5261 6.4087 20.1583 8 20.1583C9.5913 20.1583 11.1174 19.5261 12.2426 18.4009C13.3679 17.2757 14 15.7496 14 14.1583V10.5403C14 10.275 14.1054 10.0207 14.2929 9.83316C14.4804 9.64562 14.7348 9.54027 15 9.54027C15.2652 9.54027 15.5196 9.64562 15.7071 9.83316C15.8946 10.0207 16 10.275 16 10.5403V14.1583C15.9855 16.0915 15.2666 17.9531 13.978 19.3943C12.6894 20.8355 10.9195 21.7574 9 21.9873V24.0263H11.666C11.9278 24.0263 12.1788 24.1303 12.3639 24.3154C12.549 24.5005 12.653 24.7515 12.653 25.0133C12.653 25.275 12.549 25.5261 12.3639 25.7112C12.1788 25.8963 11.9278 26.0003 11.666 26.0003H11.667ZM8 18.1003C6.94659 18.1059 5.93395 17.6935 5.18412 16.9536C4.43429 16.2137 4.00846 15.2067 4 14.1533V4.94727C4 3.8864 4.42143 2.86898 5.17157 2.11884C5.92172 1.36869 6.93913 0.947266 8 0.947266C9.06087 0.947266 10.0783 1.36869 10.8284 2.11884C11.5786 2.86898 12 3.8864 12 4.94727V14.1583C11.9905 15.2109 11.5642 16.2168 10.8144 16.9557C10.0647 17.6945 9.05263 18.1061 8 18.1003Z" fill="white"/>
</svg>
