<svg width="24" height="24" viewBox="0 0 24 24" fill="none" xmlns="http://www.w3.org/2000/svg">
<path d="M23.9409 18.5914C23.8727 18.3867 23.4408 18.0854 22.6453 17.6877C22.432 17.5629 22.1254 17.3923 21.7255 17.1758C21.3256 16.9593 20.9652 16.7604 20.6442 16.5791C20.3243 16.3979 20.0204 16.2219 19.7324 16.0513C19.6834 16.015 19.5415 15.9158 19.3069 15.7538C19.1147 15.6169 18.9126 15.4945 18.7023 15.3875C18.5532 15.3127 18.3892 15.2723 18.2224 15.2691C17.8908 15.3229 17.5891 15.493 17.3714 15.749C17.0295 16.0741 16.7159 16.4278 16.4341 16.8063C16.1575 17.1781 15.8561 17.5308 15.5319 17.862C15.3379 18.1121 15.0592 18.2828 14.7481 18.3419C14.6163 18.3357 14.4864 18.307 14.3642 18.2571C14.2043 18.2011 14.0939 18.1515 14.0139 18.1131C13.934 18.0747 13.798 17.9932 13.606 17.8748C13.4141 17.7564 13.3053 17.6908 13.2861 17.6781C11.8157 16.8833 10.4638 15.8867 9.26958 14.7172C8.10013 13.5288 7.10247 12.1828 6.30556 10.7183C6.29383 10.6959 6.22824 10.5892 6.10881 10.3984C5.98937 10.2075 5.90993 10.0699 5.87047 9.98567C5.81658 9.87197 5.76852 9.75558 5.72651 9.63696C5.67649 9.51479 5.64781 9.38494 5.64173 9.25307C5.70082 8.94205 5.87147 8.66332 6.1216 8.46927C6.45428 8.14489 6.8086 7.84348 7.18213 7.56711C7.56004 7.28523 7.91322 6.97164 8.23785 6.62976C8.49416 6.41172 8.66431 6.10942 8.71772 5.77718C8.71401 5.61028 8.67302 5.44632 8.59776 5.29731C8.49089 5.08691 8.36844 4.8848 8.23145 4.69266C8.06616 4.45379 7.96645 4.31196 7.93233 4.26718C7.76171 3.98352 7.58575 3.6796 7.40447 3.35542C7.22318 3.03123 7.0243 2.67026 6.80783 2.2725C6.59455 1.87474 6.42393 1.56815 6.29596 1.35274C5.9046 0.558283 5.60654 0.124797 5.40179 0.0522828C5.28669 0.0126503 5.16509 -0.00472071 5.04349 0.00109628C4.63805 0.0145829 4.23527 0.0719697 3.8422 0.172251C3.44294 0.256145 3.05211 0.376072 2.67451 0.530557C1.8732 1.02101 1.24259 1.74658 0.868585 2.60841C0.316824 3.57467 0.0180597 4.66463 1.37859e-05 5.77718C-0.000598349 6.07623 0.0191756 6.37498 0.0591982 6.67134C0.10772 7.00265 0.1788 7.33026 0.271942 7.65189C0.378581 8.01552 0.460693 8.28532 0.518278 8.46127C0.575862 8.63723 0.692099 8.95234 0.866986 9.40663C1.03761 9.86091 1.13998 10.1392 1.17411 10.2416C1.53755 11.2831 2.0116 12.2827 2.58813 13.2232C3.63686 14.8624 4.87138 16.3749 6.26717 17.7308C7.62306 19.1266 9.13562 20.3612 10.7748 21.4099C11.7154 21.9863 12.7149 22.4603 13.7564 22.8239C13.863 22.858 14.1414 22.9604 14.5914 23.131C15.0414 23.3016 15.3565 23.4179 15.5367 23.4797C15.7127 23.5426 15.9825 23.6253 16.3461 23.7277C16.6678 23.8206 16.9954 23.8917 17.3267 23.9404C18.734 24.135 20.1658 23.8499 21.3912 23.131C22.2537 22.7575 22.9799 22.1268 23.4706 21.3251C23.6253 20.9476 23.7452 20.5567 23.829 20.1574C23.9294 19.7644 23.9867 19.3616 24.0001 18.9561C24.0044 18.8318 23.9843 18.7079 23.9409 18.5914Z" fill="#1B1D21"/>
</svg>
