<svg width="24" height="22" viewBox="0 0 24 22" fill="none" xmlns="http://www.w3.org/2000/svg">
<path d="M16.609 0.385178C16.445 0.313437 16.2592 0.309797 16.0925 0.37506C15.9258 0.440323 15.7918 0.569142 15.72 0.733178C15.6483 0.897214 15.6446 1.08303 15.7099 1.24975C15.7752 1.41647 15.904 1.55044 16.068 1.62218C17.8831 2.41394 19.4277 3.71813 20.5124 5.37484C21.5971 7.03155 22.1748 8.96878 22.1747 10.949C22.1746 12.9292 21.5967 14.8664 20.5118 16.523C19.4269 18.1796 17.8822 19.4836 16.067 20.2752C15.903 20.3469 15.7742 20.4809 15.7089 20.6476C15.6437 20.8143 15.6473 21.0001 15.719 21.1642C15.7908 21.3282 15.9247 21.457 16.0915 21.5223C16.2582 21.5876 16.444 21.5839 16.608 21.5122C18.6628 20.6149 20.4113 19.1378 21.6392 17.2618C22.8671 15.3858 23.5211 13.1923 23.5211 10.9502C23.5211 8.70803 22.8671 6.51458 21.6392 4.63855C20.4113 2.76253 18.6628 1.28541 16.608 0.388179L16.609 0.385178Z" fill="white"/>
<path d="M16.7891 5.59323C16.7233 5.53247 16.6461 5.48541 16.5619 5.45477C16.4778 5.42414 16.3884 5.41057 16.2989 5.41483C16.2095 5.41909 16.1218 5.4411 16.0409 5.47958C15.9601 5.51807 15.8877 5.57225 15.828 5.63899C15.7683 5.70573 15.7224 5.78369 15.6931 5.86832C15.6638 5.95294 15.6517 6.04255 15.6574 6.13191C15.6631 6.22128 15.6865 6.30862 15.7262 6.38886C15.766 6.46909 15.8213 6.54061 15.889 6.59924C16.5007 7.14627 16.99 7.81621 17.325 8.56528C17.66 9.31434 17.8331 10.1257 17.8331 10.9462C17.8331 11.7668 17.66 12.5781 17.325 13.3272C16.99 14.0763 16.5007 14.7462 15.889 15.2932C15.8213 15.3519 15.766 15.4234 15.7262 15.5036C15.6865 15.5838 15.6631 15.6712 15.6574 15.7606C15.6517 15.8499 15.6638 15.9395 15.6931 16.0242C15.7224 16.1088 15.7683 16.1867 15.828 16.2535C15.8877 16.3202 15.9601 16.3744 16.0409 16.4129C16.1218 16.4514 16.2095 16.4734 16.2989 16.4777C16.3884 16.4819 16.4778 16.4683 16.5619 16.4377C16.6461 16.4071 16.7233 16.36 16.7891 16.2992C17.5422 15.6256 18.1446 14.8006 18.5571 13.8782C18.9696 12.9558 19.1829 11.9567 19.1829 10.9462C19.1829 9.9358 18.9696 8.93671 18.5571 8.0143C18.1446 7.09188 17.5422 6.26689 16.7891 5.59323Z" fill="white"/>
<path d="M12.305 2.02514C12.1942 1.96964 12.0703 1.94569 11.9469 1.95592C11.8234 1.96615 11.7051 2.01017 11.605 2.08314L6.356 5.93214H1.154C1.06528 5.93214 0.977422 5.94963 0.895462 5.98362C0.813502 6.0176 0.739046 6.06741 0.676354 6.1302C0.613661 6.19298 0.563962 6.26751 0.530099 6.34952C0.496236 6.43153 0.478873 6.51941 0.479005 6.60814V15.2851C0.479005 15.4642 0.550121 15.6359 0.676708 15.7624C0.803295 15.889 0.974984 15.9601 1.154 15.9601H6.354L11.599 19.8061C11.6996 19.8798 11.8186 19.9243 11.9429 19.9344C12.0671 19.9446 12.1918 19.9202 12.303 19.8639C12.4142 19.8075 12.5077 19.7215 12.573 19.6153C12.6383 19.509 12.6729 19.3868 12.673 19.2621V2.63114C12.6739 2.50594 12.64 2.38295 12.575 2.27593C12.51 2.16892 12.4165 2.08208 12.305 2.02514Z" fill="white"/>
</svg>
