<svg width="24" height="21" viewBox="0 0 24 21" fill="none" xmlns="http://www.w3.org/2000/svg">
<path d="M17.8564 3.59924L16.9358 0H7.0642L6.14362 3.59924H3.32653V1.77332H1.92006V3.59924H0V20.362H24V3.59924H17.8564ZM4.82436 10.5665L5.89998 9.66257L6.65029 10.5596C6.91786 9.31404 7.60389 8.19765 8.59422 7.39622C9.58455 6.59479 10.8195 6.15665 12.0934 6.1547C13.2019 6.15167 14.2858 6.4808 15.2054 7.09963C16.125 7.71846 16.8382 8.59862 17.2528 9.62658L15.9474 10.1554C15.612 9.32943 15.0203 8.633 14.2593 8.16867C13.4984 7.70433 12.6084 7.49663 11.7205 7.57616C10.8327 7.6557 9.99378 8.01826 9.32746 8.61044C8.66114 9.20263 8.2026 9.99314 8.01938 10.8655L9.15452 9.93528L10.0474 11.022L7.18325 13.3753L4.82436 10.5665ZM17.3317 15.4283L16.9441 14.4357C16.5046 15.2228 15.8804 15.8913 15.1253 16.3837C14.3702 16.8761 13.5067 17.1777 12.6092 17.2626C11.7118 17.3474 10.8071 17.2129 9.97309 16.8708C9.13908 16.5286 8.40068 15.9889 7.82142 15.2981L8.89843 14.3942C9.34178 14.9268 9.91137 15.34 10.5553 15.5961C11.1992 15.8522 11.897 15.9432 12.585 15.8606C13.2731 15.778 13.9295 15.5246 14.4946 15.1234C15.0596 14.7222 15.5153 14.186 15.82 13.5636L14.372 14.1298L13.8598 12.8202L17.304 11.4733L18.6482 14.9161L17.3317 15.4283Z" fill="white"/>
</svg>
