<svg width="25" height="24" viewBox="0 0 25 24" fill="none" xmlns="http://www.w3.org/2000/svg">
<path fill-rule="evenodd" clip-rule="evenodd" d="M12.9958 21C17.9664 21 21.9958 16.9706 21.9958 12C21.9958 7.02944 17.9664 3 12.9958 3C8.02529 3 3.99585 7.02944 3.99585 12C3.99585 16.9706 8.02529 21 12.9958 21ZM13.9958 6.5C13.9958 5.94772 13.5481 5.5 12.9958 5.5C12.4436 5.5 11.9958 5.94772 11.9958 6.5V11.75C11.9958 12.4404 12.5555 13 13.2458 13H16.4958C17.0481 13 17.4958 12.5523 17.4958 12C17.4958 11.4477 17.0481 11 16.4958 11H13.9958V6.5Z" fill="#1B1D21"/>
</svg>
