<svg width="25" height="24" viewBox="0 0 25 24" fill="none" xmlns="http://www.w3.org/2000/svg">
<path fill-rule="evenodd" clip-rule="evenodd" d="M2.99585 10C2.99585 6.22876 2.99585 4.34315 4.16742 3.17157C5.339 2 7.22461 2 10.9958 2H14.9958C18.7671 2 20.6527 2 21.8243 3.17157C22.9958 4.34315 22.9958 6.22876 22.9958 10V14C22.9958 17.7712 22.9958 19.6569 21.8243 20.8284C20.6527 22 18.7671 22 14.9958 22H10.9958C7.22461 22 5.339 22 4.16742 20.8284C2.99585 19.6569 2.99585 17.7712 2.99585 14V10ZM8.73452 16.4465C9.95703 15.5085 11.4549 15 12.9959 15C14.5368 15 16.0347 15.5085 17.2572 16.4465C18.4797 17.3846 19.3585 18.6998 19.7573 20.1883C19.9003 20.7217 19.5837 21.2701 19.0502 21.413C18.5168 21.556 17.9684 21.2394 17.8255 20.7059C17.5406 19.6427 16.9129 18.7033 16.0397 18.0332C15.1664 17.3632 14.0965 17 12.9959 17C11.8952 17 10.8253 17.3632 9.95204 18.0332C9.07882 18.7033 8.4511 19.6427 8.16622 20.7059C8.02328 21.2394 7.47494 21.556 6.94148 21.413C6.40801 21.2701 6.09143 20.7217 6.23437 20.1883C6.63319 18.6998 7.51201 17.3846 8.73452 16.4465ZM10.9958 9C10.9958 7.89543 11.8913 7 12.9958 7C14.1004 7 14.9958 7.89543 14.9958 9C14.9958 10.1046 14.1004 11 12.9958 11C11.8913 11 10.9958 10.1046 10.9958 9ZM12.9958 5C10.7867 5 8.99585 6.79086 8.99585 9C8.99585 11.2091 10.7867 13 12.9958 13C15.205 13 16.9958 11.2091 16.9958 9C16.9958 6.79086 15.205 5 12.9958 5Z" fill="#1B1D21"/>
<rect x="3.49585" y="2.5" width="19" height="19" rx="3.5" stroke="#1B1D21"/>
</svg>
