<svg width="24" height="24" viewBox="0 0 24 24" fill="none" xmlns="http://www.w3.org/2000/svg">
<g clip-path="url(#clip0_416_1370)">
<path d="M23.4739 4.46324C23.3668 4.42327 23.2537 4.40212 23.1394 4.4007C23.0283 4.39757 22.9176 4.41697 22.8142 4.45771C22.7107 4.49845 22.6165 4.5597 22.5374 4.63777L17.1406 9.66277V7.60041C17.1451 7.12012 17.0464 6.64448 16.8512 6.20563C16.656 5.76678 16.3689 5.37495 16.0092 5.05664C15.2748 4.36033 14.2958 3.98102 13.284 4.00073H3.85754C2.84571 3.98102 1.86675 4.36033 1.13228 5.05664C0.772636 5.37495 0.485514 5.76678 0.290324 6.20563C0.0951348 6.64448 -0.00357198 7.12012 0.000876357 7.60041V16.3996C-0.00357198 16.8799 0.0951348 17.3555 0.290324 17.7944C0.485514 18.2332 0.772636 18.6251 1.13228 18.9434C1.86675 19.6397 2.84571 20.019 3.85754 19.9993H13.284C14.2958 20.019 15.2748 19.6397 16.0092 18.9434C16.3689 18.6251 16.656 18.2332 16.8512 17.7944C17.0464 17.3555 17.1451 16.8799 17.1406 16.3996V14.3242L22.5417 19.3622C22.6209 19.4403 22.7151 19.5016 22.8185 19.5423C22.922 19.583 23.0326 19.6024 23.1438 19.5993C23.258 19.5979 23.3712 19.5767 23.4783 19.5368C23.6338 19.4877 23.769 19.389 23.8633 19.2559C23.9575 19.1227 24.0057 18.9624 24.0003 18.7994V5.20063C24.0052 5.03708 23.9563 4.87645 23.8612 4.74329C23.7662 4.61014 23.6301 4.51177 23.4739 4.46324Z" fill="#1B1D21"/>
</g>
<defs>
<clipPath id="clip0_416_1370">
<rect width="24" height="24" fill="white" transform="translate(0.000732422)"/>
</clipPath>
</defs>
</svg>
